<svg width="36" height="36" viewBox="0 0 36 36" fill="none" xmlns="http://www.w3.org/2000/svg">
<path d="M18.0008 13H6.18354C5.69806 13.0001 5.21903 13.1164 4.78307 13.34C4.34711 13.5636 3.96576 13.8886 3.6682 14.2902C3.37064 14.6918 3.16473 15.1593 3.06623 15.657C2.96772 16.1547 2.97923 16.6694 3.09987 17.1617L6.36502 30.495C6.54076 31.2121 6.93955 31.8476 7.49848 32.3012C8.05742 32.7548 8.74468 33.0006 9.45187 33H26.5497C27.2564 32.9999 27.9429 32.7537 28.5012 32.3002C29.0595 31.8467 29.4578 31.2116 29.6334 30.495L32.9001 17.1617C33.0208 16.6694 33.0323 16.1547 32.9338 15.657C32.8353 15.1593 32.6294 14.6918 32.3318 14.2902C32.0342 13.8886 31.6529 13.5636 31.2169 13.34C30.781 13.1164 30.3019 13.0001 29.8165 13H18.0008ZM18.0008 13V3" stroke="#E82876" stroke-width="5" stroke-linecap="round" stroke-linejoin="round"/>
</svg>
