<svg width="43" height="24" viewBox="0 0 43 24" fill="none" xmlns="http://www.w3.org/2000/svg">
<g clip-path="url(#clip0_1_160)">
<path d="M36.8215 17.798H39.0012C39.2641 17.7981 39.5244 17.7538 39.7673 17.6677C40.0101 17.5815 40.2308 17.4552 40.4167 17.2959C40.6025 17.1367 40.7499 16.9475 40.8504 16.7394C40.951 16.5313 41.0026 16.3082 41.0025 16.083V11.25C41.0025 10.8199 40.9036 10.3941 40.7115 9.99682C40.5195 9.59953 40.238 9.23856 39.8831 8.93453C39.5282 8.6305 39.1069 8.38936 38.6432 8.22488C38.1796 8.06041 37.6827 7.97582 37.1809 7.97595H31.4479L31.3347 15.845" stroke="#373737" stroke-width="2" stroke-linecap="round" stroke-linejoin="round"/>
<path d="M24.8141 18.175C26.6403 18.175 28.4245 18.015 30.1491 17.854M18.5502 17.767C18.0829 17.7236 17.6466 17.5457 17.3125 17.2624C16.9785 16.979 16.7665 16.607 16.7111 16.207C16.4906 14.613 16.2362 12.951 16.2362 11.247C16.2362 9.54199 16.4883 7.88099 16.7088 6.28699C16.7648 5.88707 16.9772 5.51517 17.3114 5.2319C17.6455 4.94863 18.0817 4.77066 18.549 4.72699C20.5619 4.54099 22.66 4.31799 24.8152 4.31799C26.9705 4.31799 29.0674 4.54099 31.0791 4.72599C31.5466 4.76945 31.9831 4.94732 32.3175 5.23061C32.6519 5.51391 32.8644 5.88591 32.9205 6.28599C32.9975 6.84999 33.0792 7.42099 33.1527 7.99999" stroke="#373737" stroke-width="2"/>
<path d="M33.3919 21.069C32.4955 21.069 31.6358 20.7638 31.002 20.2206C30.3681 19.6774 30.012 18.9407 30.012 18.1725C30.012 17.4043 30.3681 16.6676 31.002 16.1244C31.6358 15.5812 32.4955 15.276 33.3919 15.276C34.2885 15.276 35.1484 15.5812 35.7823 16.1245C36.4163 16.6678 36.7724 17.4047 36.7724 18.173C36.7724 18.9413 36.4163 19.6782 35.7823 20.2215C35.1484 20.7648 34.2885 21.069 33.3919 21.069ZM21.4558 21.069C20.5595 21.069 19.6999 20.7639 19.0662 20.2208C18.4325 19.6777 18.0764 18.9411 18.0764 18.173C18.0764 17.4049 18.4325 16.6683 19.0662 16.1252C19.6999 15.5821 20.5595 15.277 21.4558 15.277C22.3522 15.277 23.2119 15.5822 23.8457 16.1254C24.4796 16.6686 24.8357 17.4053 24.8357 18.1735C24.8357 18.9417 24.4796 19.6784 23.8457 20.2216C23.2119 20.7648 22.3522 21.069 21.4558 21.069Z" stroke="#373737" stroke-width="2" stroke-linecap="round" stroke-linejoin="round"/>
</g>
<path d="M0.904297 6.28027C1.18751 5.97031 1.55724 5.77558 1.95327 5.7278C3.65931 5.52428 5.43756 5.28027 7.26426 5.28027C9.09096 5.28027 10.8682 5.52428 12.5733 5.72671" stroke="#373737" stroke-width="2"/>
<path d="M3.23743 11.2803C3.464 10.9703 3.75979 10.7756 4.07661 10.7278C5.44144 10.5243 6.86403 10.2803 8.3254 10.2803C9.78676 10.2803 11.2086 10.5243 12.5726 10.7267" stroke="#373737" stroke-width="2"/>
<path d="M5.57159 16.2803C5.74152 15.9703 5.96336 15.7756 6.20098 15.7278C7.2246 15.5243 8.29155 15.2803 9.38757 15.2803C10.4836 15.2803 11.5499 15.5243 12.573 15.7267" stroke="#373737" stroke-width="2"/>
<defs>
<clipPath id="clip0_1_160">
<rect width="28.0055" height="24" fill="white" transform="translate(14.6504)"/>
</clipPath>
</defs>
</svg>
