<svg width="21" height="21" viewBox="0 0 21 21" fill="none" xmlns="http://www.w3.org/2000/svg">
<path d="M10.5783 7.91504H3.15525C2.8503 7.91508 2.5494 7.98485 2.27555 8.11903C2.0017 8.2532 1.76216 8.44822 1.57525 8.68917C1.38833 8.93013 1.25899 9.21063 1.19712 9.50924C1.13524 9.80785 1.14247 10.1167 1.21825 10.412L3.26925 18.412C3.37964 18.8423 3.63014 19.2236 3.98123 19.4958C4.33233 19.7679 4.76403 19.9154 5.20825 19.915H15.9483C16.3921 19.915 16.8234 19.7673 17.1741 19.4951C17.5248 19.223 17.775 18.842 17.8853 18.412L19.9373 10.412C20.013 10.1167 20.0203 9.80785 19.9584 9.50924C19.8965 9.21063 19.7672 8.93013 19.5803 8.68917C19.3933 8.44822 19.1538 8.2532 18.88 8.11903C18.6061 7.98485 18.3052 7.91508 18.0003 7.91504H10.5783ZM10.5783 7.91504V1.91504" stroke="white" stroke-width="2" stroke-linecap="round" stroke-linejoin="round"/>
</svg>
