<svg width="102" height="17" viewBox="0 0 102 17" fill="none" xmlns="http://www.w3.org/2000/svg">
<path d="M43.7725 0.359979H41.8129L35.0307 16.7056H38.2246L39.7386 13.0835H47.806L49.3205 16.7056H52.5016L45.7321 0.359979H43.7725ZM43.7725 9.84928H41.0622L43.7725 3.38037L43.7852 3.3538L46.4828 9.84928H43.7725ZM77.9758 10.157H85.0509V6.93602H77.9758V3.40737H85.9032V0.359979H74.6164V16.7056H86.7303V13.6582H77.9754V10.1565L77.9758 10.157ZM94.0094 13.6586V0.359979H90.6499V16.7056H102V13.6852L94.0094 13.6586ZM28.974 6.2542H21.81V0.359979H18.4505V16.7056H21.81V9.75543H28.974V16.7056H32.3335V0.386549H28.974V6.25377V6.2542ZM66.6004 10.5311L59.7036 0.386549L58.4947 0.359979H55.797V16.7056H58.4947V4.77058L66.6004 16.7056H69.4887V0.386549H66.6004V10.5307V10.5311ZM11.936 11.413L11.5288 11.9209L11.0963 12.3751L10.5619 12.7493L10.0021 13.0702L9.40395 13.2974L8.75483 13.4311L8.09306 13.4846L7.63528 13.4714L7.16445 13.3912L6.71892 13.2845L6.28644 13.1109L5.85396 12.8971L5.47207 12.6434L5.09019 12.3494L4.74665 12.0284L4.42841 11.6543L4.14853 11.2669L3.90658 10.8525L3.70299 10.4115L3.56305 9.95727L3.4484 9.47601L3.38475 8.99476L3.35946 8.50021L3.38475 8.00567L3.4484 7.52484L3.56305 7.05687L3.70299 6.6159L3.90658 6.17492L4.14853 5.74723L4.42841 5.34611L4.74665 4.98528L5.09019 4.65144L5.47207 4.37074L5.85396 4.11662L6.28644 3.91648L6.71892 3.74292L7.16445 3.63579L7.63528 3.55565L8.09306 3.52908L8.57653 3.55565L9.03472 3.63579L9.48025 3.74292L9.92578 3.91648L10.3199 4.11662L10.7271 4.37074L11.109 4.65144L11.4525 4.98528L11.8344 5.45325L12.1526 5.93451L15.1555 4.33089L14.8756 3.84963L14.5447 3.38166L14.2138 2.94068L13.832 2.49971L13.2212 1.92503L12.5978 1.44377L11.9107 1.01608L11.1853 0.655247L10.4725 0.387834L9.68343 0.17399L8.89477 0.0402833L8.09306 0L7.26604 0.0402833L6.46473 0.187275L5.70096 0.387834L4.95024 0.681817L4.25053 1.04265L3.56346 1.45706L2.93963 1.9516L2.37985 2.49928L1.85802 3.11425L1.38719 3.76949L0.967364 4.46417L0.649125 5.19912L0.369239 5.98765L0.165647 6.80274L0.0383518 7.64484L0 8.50021L0.0383518 9.35559L0.165647 10.1707L0.343943 10.9725L0.611182 11.761L0.954716 12.496L1.34925 13.2177L1.83314 13.8858L2.38026 14.5007L2.96574 15.0754L3.60181 15.5832L4.28888 16.0109L4.9886 16.3585L5.73931 16.6392L6.50268 16.853L7.29175 16.9597L8.09346 17L8.89518 16.9597L9.68384 16.853L10.4729 16.6392L11.1857 16.3585L11.9111 16.0109L12.5982 15.5832L13.2216 15.0754L13.8324 14.5007L14.2522 14.0465L14.6341 13.5386L14.9776 13.0038L15.2702 12.4557L12.2799 10.8516L11.9364 11.413H11.936Z" fill="white"/>
</svg>
