<svg width="90" height="90" viewBox="0 0 90 90" fill="none" xmlns="http://www.w3.org/2000/svg">
<path d="M33.636 57.9866C33.636 57.319 33.636 56.556 33.5405 55.7294C33.4769 54.426 33.3177 52.9318 33.1267 51.3741C32.9357 49.9435 32.6811 48.4811 32.3946 47.0187C32.0763 45.4928 31.6943 43.9986 31.2486 42.4726C30.803 40.9785 30.3573 39.4843 29.848 38.0537C29.5934 37.3225 29.4342 36.8139 29.2432 36.337C28.4156 34.0163 27.6516 31.7909 27.3333 29.9152C27.1105 28.6754 27.1105 27.5945 27.2378 26.609C27.397 25.5917 27.7153 24.7333 28.2246 23.9703C28.7339 23.1438 29.466 22.4762 30.2618 22.0629C31.0576 21.6496 31.9489 21.4588 32.872 21.586C33.7315 21.7132 34.6228 22.1265 35.4505 22.6987C36.3099 23.3027 37.1375 24.1293 37.8697 25.0194C38.5381 25.846 39.1429 26.7361 39.6204 27.7217C40.1297 28.7072 40.5435 29.7881 40.8937 31.0279C41.2438 32.236 41.5303 33.5712 41.7532 34.97C41.976 36.337 42.167 37.7358 42.3261 39.071C42.4534 40.2473 42.5808 41.3282 42.6444 42.2819C42.7399 43.5217 42.8354 44.6662 42.8991 45.5246C42.8991 46.065 42.9628 46.5101 42.9628 46.8598C43.8222 46.669 44.427 46.5737 45.0318 46.5737C45.6366 46.5737 46.2096 46.669 47.1009 46.8598C47.1009 46.5101 47.1327 46.0968 47.1646 45.5246C47.2282 44.6662 47.2919 43.5217 47.3874 42.2819C47.4829 41.3282 47.5784 40.2473 47.7057 39.071C47.8649 37.7358 48.0559 36.337 48.2787 34.97C48.5015 33.603 48.788 32.236 49.1381 31.0279C49.4883 29.7881 49.9021 28.7072 50.4114 27.7217C50.9207 26.7361 51.4937 25.846 52.1622 25.0194C52.8943 24.1293 53.7219 23.3345 54.5814 22.6987C55.409 22.1265 56.2685 21.7132 57.1598 21.586C58.0829 21.4588 58.9742 21.6496 59.77 22.0629C60.5977 22.5079 61.298 23.1756 61.8073 23.9703C62.2847 24.7333 62.6349 25.5917 62.794 26.609C62.9532 27.5627 62.9214 28.6754 62.6986 29.9152C62.3802 31.7909 61.6162 33.9845 60.7886 36.337C60.6295 36.8456 60.4385 37.3543 60.1838 38.0537C59.7063 39.4843 59.2288 40.9467 58.7832 42.4726C58.3375 43.9668 57.9556 45.4928 57.6373 47.0187C57.319 48.4811 57.0961 49.9435 56.9051 51.3741C56.6823 52.9318 56.555 54.426 56.4913 55.7294C56.4277 56.556 56.4276 57.2872 56.3958 57.9866C61.7117 58.7496 65.1814 60.053 65.1814 61.5154C65.1814 63.8679 56.1412 65.8071 44.9682 65.8071C33.7952 65.8071 24.7549 63.8997 24.7549 61.5154C24.7549 60.053 28.2246 58.7496 33.5405 57.9866H33.636ZM82.9754 28.8025C82.8481 29.3112 82.6572 29.6291 82.1478 29.7881C81.5749 29.9788 81.0019 29.7245 80.8427 29.2476C80.5562 28.3575 81.3202 27.1812 82.0842 25.9732C83.3893 26.5136 84.7262 27.054 84.9809 27.9442C85.14 28.4211 84.7899 28.9615 84.2169 29.1522C83.7076 29.3112 83.3574 29.1522 82.9754 28.8343V28.8025ZM80.5244 27.3084C80.779 28.6436 78.8373 28.5482 78.8692 27.1494C78.8692 26.7679 79.1238 26.0367 79.665 26.1957C80.0151 26.2911 80.4289 26.8633 80.5244 27.3402V27.3084ZM85.4583 25.6552C85.4583 25.6552 85.4583 25.9096 85.4583 26.0367C85.4583 26.1321 85.4583 26.1321 85.3947 26.1957C85.2673 26.45 85.0764 26.7043 84.6944 26.7043C84.1533 26.7043 83.8667 26.1321 83.8667 25.6235C83.8667 23.8114 85.331 24.7333 85.4902 25.6235L85.4583 25.6552ZM81.4475 25.1784C81.543 26.5136 79.7922 26.45 79.8241 25.083C79.8241 24.7333 80.1106 24.0657 80.5881 24.0339C81.0337 23.9703 81.4157 24.6379 81.4475 25.1784ZM82.0205 25.0194C81.7658 24.5744 81.6703 23.8432 82.0205 23.5888C82.4343 23.2709 83.0391 23.6842 83.2619 23.9385C84.1851 24.9558 82.7526 26.2275 82.0523 25.0194H82.0205ZM6.99274 28.8025C7.12007 29.3112 7.31104 29.6291 7.82035 29.7881C8.39332 29.9788 8.96631 29.7245 9.12547 29.2476C9.41196 28.3575 8.64799 27.1812 7.88403 25.9732C6.57892 26.5136 5.24197 27.054 4.98731 27.9442C4.82816 28.4211 5.17832 28.9615 5.7513 29.1522C6.26061 29.3112 6.61076 29.1522 6.99274 28.8343V28.8025ZM9.44376 27.3084C9.1891 28.6436 11.1309 28.5482 11.099 27.1494C11.099 26.7679 10.8444 26.0367 10.3032 26.1957C9.95308 26.2911 9.53926 26.8633 9.44376 27.3402V27.3084ZM4.50986 25.6552C4.50986 25.6552 4.50986 25.9096 4.50986 26.0367C4.50986 26.1321 4.50982 26.1321 4.57348 26.1957C4.70081 26.45 4.89181 26.7043 5.27379 26.7043C5.81493 26.7043 6.10145 26.1321 6.10145 25.6235C6.10145 23.8114 4.63715 24.7333 4.47799 25.6235L4.50986 25.6552ZM8.52066 25.1784C8.42516 26.5136 10.1759 26.45 10.1441 25.083C10.1441 24.7333 9.85761 24.0657 9.38013 24.0339C8.93448 23.9703 8.55249 24.6379 8.52066 25.1784ZM7.94771 25.0194C8.20236 24.5744 8.29786 23.8432 7.94771 23.5888C7.53389 23.2709 6.92909 23.6842 6.70626 23.9385C5.78314 24.9558 7.21554 26.2275 7.91584 25.0194H7.94771ZM83.8667 58.6542C83.4848 59.0357 83.1664 59.1946 82.6571 59.0675C82.0841 58.9403 81.7022 58.3999 81.8295 57.923C82.0523 57.0329 83.3256 56.397 84.5989 55.7612C85.4265 56.9057 86.286 58.0502 86.0631 58.9403C85.9358 59.449 85.3629 59.7351 84.7899 59.5761C84.2487 59.449 84.0578 59.1628 83.8986 58.6542H83.8667ZM82.5616 56.1109C82.0841 57.3826 80.4607 56.3017 81.2247 55.1254C81.4157 54.8075 82.0205 54.2988 82.4025 54.7121C82.6572 54.9664 82.7208 55.6976 82.5616 56.1427V56.1109ZM87.6229 57.2554C87.6229 57.2554 87.4956 57.5097 87.4319 57.5733C87.3682 57.6369 87.3683 57.6369 87.3046 57.6687C87.0818 57.8276 86.7634 57.9548 86.4451 57.764C85.9676 57.5097 86.0313 56.8421 86.286 56.397C87.2091 54.8393 88.0049 56.397 87.6547 57.2554H87.6229ZM84.4397 54.7439C83.8349 55.952 82.3707 54.9664 83.1028 53.822C83.2938 53.5359 83.8667 53.0908 84.3124 53.3133C84.7262 53.5041 84.6944 54.267 84.4715 54.7439H84.4397ZM85.0127 54.9347C85.0127 54.426 85.331 53.7584 85.7448 53.6948C86.2541 53.6312 86.5724 54.3306 86.6361 54.6167C86.8908 55.952 85.0127 56.3017 85.0445 54.9029L85.0127 54.9347ZM6.10145 58.6542C6.48343 59.0357 6.80172 59.1946 7.31103 59.0675C7.884 58.9403 8.26602 58.3999 8.13869 57.923C7.91587 57.0329 6.64256 56.397 5.36928 55.7612C4.54165 56.9057 3.68222 58.0502 3.90504 58.9403C4.03237 59.449 4.60532 59.7351 5.1783 59.5761C5.71944 59.449 5.91043 59.1628 6.06959 58.6542H6.10145ZM7.40652 56.1109C7.884 57.3826 9.50747 56.3017 8.7435 55.1254C8.55251 54.8075 7.94767 54.2988 7.56569 54.7121C7.31103 54.9664 7.24736 55.6976 7.40652 56.1427V56.1109ZM2.34526 57.2554C2.34526 57.2554 2.47258 57.5097 2.53625 57.5733C2.59991 57.6369 2.59994 57.6369 2.6636 57.6687C2.88642 57.8276 3.20476 57.9548 3.52307 57.764C4.00055 57.5097 3.93685 56.8421 3.6822 56.397C2.75907 54.8393 1.9633 56.397 2.31345 57.2554H2.34526ZM5.52845 54.7439C6.13326 55.952 7.59752 54.9664 6.86538 53.822C6.67439 53.5359 6.10145 53.0908 5.65581 53.3133C5.24199 53.5041 5.27381 54.267 5.49664 54.7439H5.52845ZM4.9555 54.9347C4.9555 54.426 4.66898 53.7584 4.22333 53.6948C3.71402 53.6312 3.39571 54.3306 3.33204 54.6167C3.07739 55.952 4.95547 56.3017 4.92364 54.9029L4.9555 54.9347ZM86.286 43.3628C85.9358 43.7761 85.6493 43.9668 85.1082 43.8714C84.5034 43.7761 84.0896 43.2992 84.1851 42.7905C84.3442 41.8686 85.5538 41.1374 86.7635 40.4062C87.6866 41.4871 88.6097 42.568 88.4824 43.4581C88.3869 43.9668 87.8457 44.2847 87.2728 44.1893C86.7316 44.094 86.5088 43.8396 86.3178 43.331L86.286 43.3628ZM84.7899 40.9149C84.4079 42.2183 82.7208 41.2646 83.3893 40.0247C83.5803 39.7068 84.1214 39.1346 84.5352 39.5161C84.7899 39.7704 84.9172 40.4698 84.7899 40.9149ZM89.9466 41.6779C89.9466 41.6779 89.8512 41.9322 89.7557 42.0276C89.692 42.0911 89.692 42.0911 89.6283 42.1547C89.4055 42.3137 89.119 42.4726 88.7689 42.3137C88.2914 42.0911 88.2914 41.4235 88.5142 40.9785C89.31 39.3571 90.2331 40.8513 89.9466 41.7096V41.6779ZM86.5725 39.4207C86.0632 40.6605 84.5034 39.8022 85.1719 38.6259C85.331 38.308 85.8722 37.8629 86.3178 38.0219C86.7635 38.1809 86.7953 38.9438 86.5725 39.4525V39.4207ZM87.1454 39.5797C87.1454 39.071 87.3682 38.3716 87.7821 38.2762C88.2914 38.1809 88.6415 38.8485 88.737 39.1346C89.0872 40.438 87.2409 40.9467 87.1454 39.5479V39.5797ZM3.6822 43.3628C4.03235 43.7761 4.31887 43.9668 4.86001 43.8714C5.46481 43.7761 5.87861 43.2992 5.78311 42.7905C5.62395 41.8686 4.41435 41.1374 3.20474 40.4062C2.28161 41.4871 1.35846 42.568 1.48579 43.4581C1.58128 43.9668 2.12244 44.2847 2.69541 44.1893C3.23656 44.094 3.45939 43.8396 3.65038 43.331L3.6822 43.3628ZM5.1783 40.9149C5.56028 42.2183 7.24738 41.2328 6.57891 40.0247C6.38792 39.7068 5.84677 39.1346 5.43296 39.5161C5.1783 39.7704 5.05097 40.4698 5.1783 40.9149ZM0.0533615 41.6779C0.0533615 41.6779 0.148849 41.9322 0.244345 42.0276C0.308009 42.0911 0.308036 42.0911 0.3717 42.1547C0.594523 42.3137 0.881024 42.4726 1.23117 42.3137C1.70865 42.0911 1.70861 41.4235 1.48579 40.9785C0.68999 39.3571 -0.233125 40.8513 0.0533615 41.7096V41.6779ZM3.42753 39.4207C3.93684 40.6605 5.46478 39.8022 4.82815 38.6259C4.66899 38.308 4.12784 37.8629 3.6822 38.0219C3.23655 38.1809 3.20471 38.9438 3.42753 39.4525V39.4207ZM2.82277 39.5797C2.82277 39.071 2.59991 38.3716 2.18609 38.2762C1.67678 38.1809 1.32667 38.8167 1.23117 39.1346C0.881024 40.438 2.72727 40.9467 2.82277 39.5479V39.5797ZM74.8902 72.515C74.4445 72.8011 74.0943 72.8647 73.6169 72.6104C73.0757 72.3243 72.8529 71.7202 73.1075 71.2752C73.5532 70.4804 74.9538 70.1943 76.3226 69.8764C76.8319 71.2116 77.3412 72.515 76.9274 73.3416C76.6728 73.7867 76.0679 73.9138 75.5268 73.6277C75.0493 73.3734 74.922 73.0237 74.8902 72.515ZM74.2535 69.7174C73.4577 70.8301 72.1844 69.3359 73.2349 68.414C73.5214 68.1597 74.2217 67.81 74.4763 68.3186C74.6355 68.6365 74.54 69.3359 74.2535 69.7174ZM78.8692 72.1335C78.8692 72.1335 78.6781 72.3243 78.5826 72.3879C78.4871 72.4514 78.4872 72.4196 78.4235 72.4514C78.1689 72.5468 77.8505 72.5786 77.564 72.2925C77.1821 71.911 77.4049 71.307 77.755 70.9255C79.0283 69.6538 79.4103 71.3705 78.8692 72.1017V72.1335ZM76.4499 68.8909C75.5586 69.8764 74.3808 68.5729 75.3994 67.651C75.6541 67.4285 76.3226 67.1424 76.6727 67.4603C77.0229 67.7464 76.8 68.4776 76.4499 68.8909ZM76.9592 69.2088C77.0865 68.7001 77.5641 68.1279 77.9779 68.1915C78.4872 68.255 78.6145 69.018 78.5826 69.3359C78.4871 70.7029 76.5772 70.544 76.9592 69.2088ZM15.078 72.515C15.5237 72.8011 15.8738 72.8647 16.3513 72.6104C16.8925 72.3243 17.1153 71.7202 16.8606 71.2752C16.4149 70.4804 15.0144 70.1943 13.6456 69.8764C13.1363 71.2116 12.627 72.515 13.0408 73.3416C13.2954 73.7867 13.9002 73.9138 14.4414 73.6277C14.9189 73.3734 15.0462 73.0237 15.078 72.515ZM15.7146 69.7174C16.5104 70.8301 17.7837 69.3359 16.7333 68.414C16.4468 68.1597 15.7465 67.81 15.4918 68.3186C15.3327 68.6365 15.4282 69.3359 15.7146 69.7174ZM11.099 72.1335C11.099 72.1335 11.29 72.3243 11.3855 72.3879C11.481 72.4514 11.481 72.4196 11.5447 72.4514C11.7993 72.5468 12.1177 72.5786 12.4042 72.3243C12.7861 71.9428 12.5633 71.3388 12.2132 70.9573C10.9399 69.6856 10.5579 71.4023 11.099 72.1335ZM13.5183 68.8909C14.4096 69.8764 15.5873 68.5729 14.5687 67.651C14.314 67.4285 13.6456 67.1424 13.2954 67.4603C12.9453 67.7464 13.1681 68.4776 13.5183 68.8909ZM13.009 69.2088C12.8816 68.7001 12.4041 68.1279 11.9903 68.1915C11.481 68.255 11.3537 69.018 11.3855 69.3359C11.481 70.7029 13.3909 70.544 13.009 69.2088ZM27.1105 76.3935L31.2804 78.2056L30.8348 79.1275C30.4528 79.1275 30.0072 79.0322 29.5615 78.8732C29.4342 78.8414 28.7657 78.5871 27.5243 78.1102L26.8877 79.7315L28.3838 80.4627L27.6835 81.8933L25.9964 80.9714L25.0414 83.0696L27.3333 84.0869L26.9513 85.0724L23.5135 83.3875L27.1105 76.3617V76.3935ZM31.2486 78.5553L33.4768 79.509L33.2222 82.8153C33.6042 82.7199 34.0817 82.3384 34.6228 81.6708C35.1321 81.0668 35.4504 80.5263 35.6096 80.0813L37.2967 80.6535C37.1693 81.0032 36.8829 81.7344 36.4372 82.8471C36.2144 83.4193 36.0552 83.8326 35.9279 84.1823C35.8006 84.5638 35.5777 85.3585 35.2594 86.5348C35.1003 87.1388 34.973 87.6157 34.8456 87.9654L33.445 87.4885C33.6679 87.1388 33.8907 86.7255 34.0817 86.3123C34.2727 85.8672 34.4636 85.4539 34.6228 85.0088C34.9411 84.1187 35.1958 83.165 35.4186 82.2112L32.8084 85.5811L31.5988 85.1996L31.8216 80.1766L31.6943 80.5581C31.5351 81.0032 31.4078 81.4483 31.2804 81.9569C31.1531 82.4656 30.994 83.006 30.8667 83.5465C30.7075 84.0869 30.5801 84.532 30.4846 84.8817C30.2937 85.3903 30.1027 85.899 29.8799 86.3758L28.5748 85.9308C28.7976 85.2632 29.0841 84.5002 29.4342 83.5782C29.7844 82.6881 30.1027 81.798 30.4528 80.9078C30.803 80.0177 31.0895 79.2229 31.3123 78.5553H31.2486ZM39.8432 88.6012L38.7291 88.5376C38.9838 87.2978 39.3021 86.1533 39.6522 85.136C40.0342 83.9597 40.5117 82.9106 41.0847 81.9251H42.9628C43.0265 83.1968 43.0901 84.373 43.1538 85.4221C43.2174 86.7573 43.3129 87.9336 43.4084 88.9509L42.0078 88.8555L41.9441 86.2487H40.448L39.8432 88.633V88.6012ZM41.0529 84.1823H41.9123V82.6245L41.594 82.8153L41.0529 84.1823ZM45.4457 89.5549V89.841L44.2679 90C44.2679 89.5549 44.2679 88.5694 44.2679 87.107C44.2679 86.3758 44.2679 85.7718 44.2679 85.3585C44.2679 85.0088 44.2042 84.2776 44.1087 83.1332C44.0451 82.5609 44.0132 82.1159 44.0132 81.7662L44.9682 81.6708C45.3501 81.9251 45.7321 82.243 46.1141 82.6563C46.4324 82.9742 46.7507 83.3557 47.1009 83.8008C47.4192 84.2141 47.7376 84.5956 48.024 85.0088C48.0559 84.5956 48.1195 84.1823 48.1195 83.8008C48.1195 83.3875 48.1195 82.9742 48.1195 82.5609C48.1195 82.2748 48.1195 82.0205 48.0559 81.798C48.0559 81.5754 47.9922 81.2893 47.8967 80.9396C48.215 80.9396 48.5334 80.9714 48.8835 81.0986C48.8835 81.48 48.8835 81.9251 48.8835 82.4338C48.8835 83.6418 48.8835 84.4048 48.8835 84.6909C48.8835 85.1996 48.9472 85.6764 49.0108 86.1851C49.0745 86.6938 49.2336 87.6157 49.4565 88.9827H47.9922C47.5147 88.0926 47.0372 87.2342 46.5598 86.4076C45.9868 85.4221 45.4457 84.6273 44.9045 84.0233C44.9045 84.532 44.9682 85.136 45.0318 85.8036C45.0955 86.4712 45.1592 87.1388 45.2228 87.8064C45.2865 88.474 45.3183 89.0463 45.3502 89.5231L45.4457 89.5549ZM50.6661 84.4684C50.7298 85.1042 50.8571 85.8036 51.0163 86.5348C51.1117 87.0434 51.3027 87.7429 51.5255 88.5694L50.125 88.7602C50.0931 88.4105 50.0613 87.9972 49.9976 87.5203C49.9339 86.4076 49.8703 85.7082 49.8384 85.4221C49.7748 84.8817 49.7111 84.4366 49.6156 83.9915C49.552 83.5782 49.4246 83.0378 49.2973 82.402C49.2336 82.0841 49.1063 81.5754 48.9472 80.9078L50.3796 80.6217C50.3796 81.3847 50.4433 82.0523 50.4751 82.5927C50.5069 83.165 50.5706 83.769 50.6661 84.4684ZM50.4751 81.0986L52.8306 80.6217L54.4859 83.4829C54.7406 83.165 54.9316 82.5927 54.9952 81.7662C55.0589 80.9714 55.0271 80.3674 54.8997 79.8905L56.6186 79.4136C56.7141 79.7633 56.9051 80.5263 57.1598 81.7026C57.2871 82.2748 57.4144 82.7517 57.5099 83.0696C57.6054 83.4511 57.8919 84.2459 58.3057 85.3903C58.5286 85.9626 58.6877 86.4394 58.7832 86.8209L57.3508 87.2342C57.3508 86.8209 57.2871 86.3758 57.1916 85.899C57.0961 85.4221 57.0006 84.977 56.8733 84.532C56.6187 83.61 56.3003 82.6881 55.9183 81.7662L55.6955 86.0261L54.4859 86.4076L51.812 82.1477L51.9394 82.5609C52.0667 83.006 52.2258 83.4511 52.385 83.9597C52.576 84.4684 52.767 84.977 52.958 85.4857C53.149 86.0261 53.3081 86.4712 53.4036 86.7891C53.5628 87.3296 53.6583 87.8382 53.7538 88.3787L52.4168 88.7602C52.2258 88.0926 52.003 87.2978 51.7802 86.3441C51.5574 85.4221 51.3346 84.5002 51.1117 83.5465C50.8889 82.6245 50.6661 81.798 50.4751 81.1303V81.0986ZM60.7249 85.9626L59.7063 86.4394C59.3244 85.1996 59.0379 84.0869 58.8787 83.006C58.6559 81.798 58.5604 80.6217 58.5922 79.509L60.2157 78.5871C60.8841 79.6998 61.5208 80.7171 62.0619 81.6072C62.7622 82.7199 63.3988 83.7054 63.9718 84.5638L62.6986 85.136L61.3934 82.8788L60.0883 83.61L60.6931 85.9944L60.7249 85.9626ZM59.6427 81.48L60.3748 81.0668L59.6427 79.6998L59.4517 80.0177L59.6427 81.48ZM63.5898 80.1448C63.9082 80.7171 64.2901 81.2893 64.7358 81.8933C65.0541 82.3384 65.4679 82.8788 66.009 83.5782L64.7995 84.3094C64.6403 84.0233 64.4175 83.6418 64.1947 83.1968C63.6853 82.1794 63.367 81.5754 63.2079 81.3211C62.9532 80.876 62.6985 80.4627 62.4439 80.113C62.2211 79.7633 61.9027 79.3183 61.5207 78.7778C61.3297 78.5235 61.0114 78.1102 60.6294 77.538L61.8391 76.7114C62.1574 77.4108 62.4439 77.983 62.6986 78.4917C62.9532 79.0004 63.2715 79.5408 63.5898 80.1448ZM64.6084 75.9166C64.8949 75.7259 65.2769 75.6623 65.7544 75.7895C66.1045 75.8531 66.4865 76.012 66.8685 76.2346L66.2637 77.379L66.1682 77.2201C66.0091 76.9657 65.7862 76.775 65.5316 76.616C65.2133 76.4253 64.9268 76.4253 64.7039 76.5525C64.4811 76.7114 64.3538 76.9022 64.3538 77.1565C64.3538 77.3472 64.4493 77.6016 64.6084 77.8559C64.9586 78.3645 65.4997 78.7778 66.2637 79.0322C66.964 79.2547 67.6325 79.4454 68.3328 79.668C69.1286 79.9541 69.7016 80.3356 70.0199 80.876C70.4019 81.48 70.4019 82.1159 70.0199 82.7517C69.7334 83.2603 69.2241 83.7372 68.5556 84.1823C68.0145 84.532 67.5051 84.8181 66.9958 85.0406C66.4865 85.2632 65.9454 85.4221 65.4042 85.5175L65.4997 84.6591C65.818 84.5638 66.1682 84.4366 66.5184 84.3412C66.8685 84.2141 67.1868 84.0869 67.4097 83.9279C67.8553 83.6418 68.2373 83.2921 68.5556 82.9424C69.0013 82.4338 69.0968 81.9887 68.8739 81.639C68.7785 81.48 68.3965 81.3211 67.728 81.1303C66.8367 80.876 66.2001 80.6217 65.7862 80.4309C64.9904 80.0177 64.3856 79.4772 63.9081 78.7778C63.6216 78.301 63.5262 77.7923 63.6535 77.2519C63.7808 76.6796 64.0992 76.2663 64.5448 75.9484L64.6084 75.9166ZM17.2107 20.823L17.4336 21.0456L16.7015 21.9675C16.3832 21.6496 15.6829 20.9502 14.6642 19.9011C14.1549 19.3607 13.7411 18.9474 13.4227 18.6613C13.1681 18.4387 12.5951 17.9301 11.7357 17.1989C11.29 16.8174 10.9717 16.5313 10.7171 16.3087L11.3219 15.5457C11.7675 15.4504 12.2768 15.4186 12.818 15.4186C13.2636 15.4186 13.7729 15.4504 14.3459 15.514C14.8552 15.5775 15.3645 15.6411 15.842 15.7047C15.5873 15.3868 15.3327 15.0689 15.0462 14.751C14.7597 14.4331 14.505 14.1469 14.1867 13.8608C13.9957 13.6701 13.8048 13.5111 13.6138 13.3522C13.4546 13.225 13.2 13.0661 12.9135 12.8435C13.1363 12.621 13.3909 12.4302 13.7411 12.2713C14.0276 12.5256 14.3459 12.8435 14.6961 13.225C15.5237 14.0834 16.0648 14.6238 16.2876 14.8463C16.6378 15.196 17.0198 15.514 17.4336 15.8319C17.8474 16.1498 18.6114 16.722 19.7255 17.5168L18.6432 18.5023C17.7201 18.248 16.7651 17.9619 15.842 17.7075C14.7279 17.4214 13.7729 17.2307 13.009 17.1671C13.3909 17.5168 13.8048 17.8983 14.3459 18.3433C14.8552 18.7884 15.3645 19.2017 15.9057 19.615C16.415 20.0283 16.8606 20.4098 17.2107 20.7595V20.823ZM19.6936 14.3377L20.776 13.3204L22.5903 15.196L23.6726 14.3377C22.9087 13.6701 22.0492 12.8435 21.0942 11.9216C20.3303 11.1904 19.5027 10.3638 18.5795 9.44189L17.2107 10.7453C17.4654 11.8262 17.8474 12.9389 18.3249 14.0516C18.7705 15.0371 19.3117 16.0862 19.9483 17.1671L20.8078 16.4677L19.6618 14.3059L19.6936 14.3377ZM18.1975 11.0314L18.2931 10.6817L19.3435 11.8262L18.7069 12.3984L18.1657 11.0314H18.1975ZM15.7146 10.4592L15.651 10.3956C15.5237 10.2367 15.4919 10.0777 15.5555 9.91876C15.6192 9.7598 15.7465 9.60085 15.9375 9.47368C16.2558 9.21936 16.606 9.09219 16.988 9.12398C17.3699 9.12398 17.6564 9.09219 17.7837 8.96503C17.8792 8.90145 17.9111 8.80608 17.9429 8.74249C17.9429 8.67891 17.9429 8.61533 17.8474 8.51996C17.8156 8.45638 17.7519 8.42459 17.7201 8.361C17.6882 8.32921 17.6246 8.26563 17.5928 8.23384L18.102 7.78877C18.3249 8.07489 18.4204 8.32921 18.4204 8.58354C18.4204 8.83787 18.293 9.09219 18.0065 9.28294C17.8156 9.44189 17.4973 9.50548 17.0834 9.50548C16.6696 9.50548 16.3831 9.53727 16.224 9.66443C16.1603 9.69622 16.1603 9.7598 16.1603 9.82338C16.1603 9.88697 16.224 9.95055 16.2876 10.0141L15.6828 10.4592H15.7146ZM26.9832 8.10668C27.3651 8.77429 27.588 9.60085 27.6198 10.5546C27.6516 11.6673 27.3651 12.3984 26.7285 12.7481C26.0282 13.1614 25.1369 13.1296 24.1183 12.6846C23.1633 12.2713 22.463 11.699 22.0492 10.9361C21.5399 10.0777 21.3171 9.18757 21.3489 8.29742C21.3807 7.28011 21.8264 6.54892 22.654 6.07206C23.3543 5.65878 24.182 5.75415 25.1051 6.2628C25.9327 6.70788 26.5375 7.3119 26.9832 8.07489V8.10668ZM23.7045 10.1095C23.9273 10.491 24.3411 10.9361 24.9141 11.5083C25.6144 12.1759 26.0918 12.4302 26.3147 12.2713C26.5057 12.1759 26.442 11.6673 26.1874 10.8089C25.9645 10.0777 25.7735 9.56906 25.5826 9.25115C25.3597 8.86966 24.9459 8.361 24.3093 7.6934C23.5772 6.93041 23.0996 6.58071 22.8768 6.70788C22.654 6.83504 22.7177 7.37549 23.0042 8.32921C23.2588 9.12398 23.4817 9.69622 23.7045 10.0777V10.1095ZM32.2354 3.59237L30.8667 3.87849L30.3255 2.41611L37.1375 0.6994L37.2012 1.49417L33.2859 2.86118L35.1639 9.21936L33.4132 9.63264L32.2354 3.56058V3.59237ZM38.8246 0.604027L43.3448 0L43.4402 1.01731C43.0901 1.20805 42.6763 1.33522 42.2306 1.46238C42.1033 1.46238 41.403 1.62134 40.0979 1.87566L40.3844 3.59237L42.0714 3.43342L42.1988 4.99117L40.2889 5.08654L40.5754 7.37549L43.0583 7.05758L43.2174 8.10668L39.4294 8.45638L38.8564 0.572236L38.8246 0.604027ZM46.7826 0.858354C47.1328 0.858354 47.4829 1.0491 47.8012 1.3988C48.0559 1.65313 48.2787 2.00283 48.4697 2.41611L47.3237 3.02013V2.82939C47.3237 2.54327 47.2919 2.25715 47.1328 1.97104C46.9736 1.62134 46.7508 1.46238 46.4961 1.46238C46.2096 1.46238 46.0186 1.55775 45.8595 1.7485C45.764 1.90745 45.7003 2.16178 45.6685 2.4479C45.6685 3.05193 45.8913 3.68774 46.3688 4.35535C46.8144 4.92759 47.2601 5.49982 47.7376 6.04027C48.215 6.70788 48.4697 7.37549 48.4378 7.97951C48.4378 8.67891 48.0559 9.21936 47.3874 9.53727C46.8463 9.79159 46.1778 9.91876 45.382 9.88697C44.7454 9.88697 44.1406 9.82338 43.5994 9.72801C43.0583 9.63264 42.5171 9.47369 42.0078 9.21936L42.549 8.58354C42.8673 8.67891 43.2174 8.77429 43.5676 8.90145C43.9177 8.99682 44.2361 9.0604 44.5544 9.0604C45.0955 9.0604 45.6048 9.02861 46.0504 8.90145C46.7189 8.7107 47.0373 8.42459 47.0373 8.0113C47.0373 7.82056 46.8144 7.47086 46.4006 6.93041C45.8276 6.23101 45.4138 5.65878 45.191 5.2455C44.7772 4.45072 44.5544 3.65595 44.5862 2.82939C44.5862 2.28894 44.809 1.81208 45.2546 1.43059C45.6685 1.0491 46.1778 0.858354 46.7507 0.858354H46.7826ZM52.3532 2.32073L51.0163 2.00283L51.1754 0.445072L58.0511 1.90745L57.7328 2.63864L53.5946 2.16178L52.4805 8.67891L50.7297 8.26563L52.3213 2.28894L52.3532 2.32073ZM57.7646 10.0459L56.7141 9.63264C57.3508 8.51996 57.9556 7.50265 58.5922 6.6443C59.3243 5.65878 60.0883 4.76863 60.8841 4.00565L62.6986 4.51431C62.3484 5.78594 62.0619 6.93041 61.8391 7.94772C61.5208 9.25115 61.2661 10.3956 61.0751 11.3811L59.77 10.8725L60.5021 8.361L59.0697 7.94772L57.7646 10.0459ZM60.2157 6.16743L61.0115 6.42176L61.4571 4.92759L61.107 5.02296L60.1838 6.16743H60.2157ZM65.6589 5.08654L67.6643 6.42176L66.8048 9.60085C67.2187 9.56906 67.728 9.28294 68.3964 8.74249C69.0012 8.23384 69.4151 7.78877 69.6697 7.37549L71.2295 8.26563C71.0385 8.58354 70.6247 9.25115 69.9562 10.2685C69.6379 10.7771 69.3832 11.1904 69.1922 11.4765C69.0012 11.8262 68.6193 12.5574 68.0781 13.6701C67.8235 14.2105 67.5688 14.6556 67.4097 15.0053L66.1045 14.2741C66.391 13.9562 66.6775 13.6065 66.964 13.225C67.2505 12.8435 67.5052 12.4302 67.728 12.0487C68.2055 11.2222 68.6192 10.3638 69.0331 9.44189L65.8181 12.2713L64.7039 11.6673L65.8817 6.77146L65.6589 7.12116C65.4361 7.50265 65.2133 7.94772 64.9904 8.42459C64.7676 8.90145 64.513 9.37831 64.2901 9.88697C64.0355 10.3956 63.8445 10.8089 63.6535 11.1268C63.367 11.6037 63.0805 12.0487 62.7622 12.4938L61.5526 11.7944C61.9028 11.1904 62.3165 10.491 62.8259 9.66443C63.3352 8.83787 63.8445 8.04309 64.3538 7.21653C64.8631 6.38997 65.2769 5.69057 65.6589 5.08654ZM74.9857 16.4995C74.4763 17.1035 73.776 17.5486 72.8847 17.8983C71.8343 18.3116 71.0703 18.248 70.5292 17.8029C69.8925 17.2625 69.6379 16.4359 69.7334 15.3232C69.8289 14.2741 70.1472 13.4475 70.6883 12.7799C71.3568 12.017 72.089 11.5083 72.9484 11.254C73.9352 10.9679 74.7628 11.1268 75.4949 11.7308C76.0997 12.2395 76.3226 13.0661 76.1316 14.1152C75.9725 15.0371 75.5904 15.8319 75.0493 16.4677L74.9857 16.4995ZM71.9935 14.0834C71.707 14.4013 71.3886 14.9417 71.0703 15.7047C70.6883 16.5631 70.5929 17.1035 70.8157 17.2942C70.9749 17.4214 71.4205 17.2307 72.1526 16.6902C72.7893 16.2451 73.2031 15.8637 73.4259 15.6093C73.7124 15.2914 74.0625 14.7192 74.4763 13.8926C74.9538 12.9389 75.113 12.3667 74.922 12.2077C74.731 12.0487 74.2217 12.2713 73.4259 12.8753C72.7574 13.384 72.2799 13.7655 71.9935 14.1152V14.0834ZM79.6331 16.6902C79.8559 16.9445 79.9833 17.326 79.9196 17.8029C79.9196 18.1526 79.7923 18.5659 79.6331 18.9792L78.4235 18.5341L78.5508 18.4387C78.7736 18.248 78.9328 17.9936 79.0601 17.7075C79.1875 17.3578 79.1875 17.0717 78.9965 16.881C78.8055 16.6584 78.6145 16.5948 78.3598 16.6266C78.1688 16.6584 77.946 16.7856 77.7232 16.9763C77.2457 17.3896 76.9274 17.9936 76.7682 18.7884C76.6409 19.4878 76.5454 20.219 76.4181 20.9184C76.2589 21.745 75.9406 22.349 75.4631 22.7623C74.922 23.2391 74.3172 23.3027 73.5851 23.0166C73.0439 22.7941 72.5028 22.3808 71.9616 21.7768C71.5478 21.2999 71.1976 20.823 70.8793 20.3462C70.5928 19.8693 70.3382 19.3607 70.179 18.852H71.0385C71.1976 19.1381 71.325 19.456 71.4841 19.8057C71.6433 20.1554 71.8343 20.4097 72.0253 20.6323C72.3754 21.0456 72.7574 21.3635 73.1712 21.6178C73.7442 21.9675 74.1898 22.0311 74.5082 21.745C74.6355 21.6178 74.7628 21.2363 74.8583 20.5687C74.9856 19.6786 75.1448 18.9792 75.304 18.5659C75.5904 17.7393 76.0679 17.0399 76.6727 16.4995C77.0866 16.1498 77.5959 15.9908 78.1689 16.0226C78.7418 16.0544 79.2193 16.3087 79.6013 16.722L79.6331 16.6902ZM47.6739 61.6743C47.8967 61.4518 48.2469 61.4518 48.4697 61.6743C48.6925 61.8969 48.6925 62.2466 48.4697 62.4691H48.406C48.215 62.6916 47.9922 62.8824 47.7694 63.0095C49.9021 62.946 51.812 62.8506 53.1171 62.6916C53.5628 62.628 53.9448 62.5645 54.1994 62.5009C54.2949 62.5009 54.3904 62.4373 54.4541 62.4373C54.4541 62.2148 54.4541 61.8651 54.4541 61.3246V61.1339C54.3904 59.9258 54.3268 58.0502 54.4541 55.6023C54.5496 54.2353 54.6769 52.7093 54.8997 51.088C55.0907 49.6256 55.3454 48.0996 55.6637 46.5737C55.982 44.9841 56.3958 43.4264 56.8415 41.9004C57.2871 40.3744 57.7646 38.8803 58.2739 37.3861C58.4331 36.941 58.6559 36.2734 58.8787 35.6376C59.6745 33.4122 60.4066 31.2822 60.6931 29.5655C60.8523 28.5482 60.8841 27.6899 60.7886 26.9269C60.6931 26.2275 60.4385 25.5917 60.1202 25.083C59.77 24.5744 59.3562 24.1293 58.8469 23.875C58.4331 23.6524 57.9874 23.557 57.5099 23.6206C57.0006 23.6842 56.4277 23.9703 55.8228 24.3836C55.1225 24.8923 54.4222 25.5599 53.8174 26.2911C53.2444 26.9905 52.7352 27.7534 52.2895 28.6436C51.8439 29.5019 51.4937 30.4875 51.1754 31.5684C50.8571 32.7128 50.5706 33.9845 50.3478 35.2879C50.1249 36.6231 49.934 37.9583 49.7748 39.2617C49.6475 40.3426 49.552 41.4235 49.4565 42.409C49.3291 43.7443 49.2655 44.8252 49.2336 45.5881C49.1381 46.9551 49.1381 47.5274 49.1381 47.8135C49.1381 48.8732 48.5546 49.2653 47.3874 48.9898C46.2415 48.7354 45.6048 48.6083 45 48.6083C44.3952 48.6083 43.7904 48.7354 42.6444 48.9898C41.4773 49.2441 40.8937 48.852 40.8937 47.8135C40.8937 47.6227 40.8937 47.3684 40.8937 47.1459C40.8937 46.828 40.8937 46.3511 40.83 45.5881C40.7982 44.8252 40.7027 43.7443 40.5754 42.409C40.4799 41.4235 40.3844 40.3426 40.2571 39.2617C40.0979 37.9583 39.9387 36.6231 39.6841 35.2879C39.4612 33.9845 39.2066 32.7128 38.8564 31.5684C38.5381 30.4557 38.1562 29.5019 37.7424 28.6436C37.2967 27.7852 36.8192 27.0223 36.2144 26.2911C35.6096 25.5599 34.9093 24.8605 34.209 24.3836C33.636 23.9703 33.063 23.716 32.5219 23.6206C32.0444 23.557 31.5988 23.6206 31.1849 23.875C30.6756 24.1293 30.2618 24.5744 29.9117 25.083C29.5934 25.5917 29.3387 26.1957 29.2432 26.9269C29.1159 27.6899 29.1477 28.5482 29.3387 29.5655C29.6252 31.2822 30.3892 33.4122 31.1531 35.6376C31.376 36.2734 31.5988 36.941 31.7579 37.3861C32.2673 38.8803 32.7447 40.3744 33.1904 41.9004C33.636 43.4264 34.018 44.9841 34.3681 46.5737C34.6865 48.0678 34.9411 49.5938 35.1321 51.088C35.3549 52.7093 35.4823 54.2353 35.5778 55.6023C35.7369 58.0502 35.6414 59.9258 35.5778 61.1339V61.3246C35.5778 61.8333 35.5459 62.183 35.5778 62.4373C35.6414 62.4373 35.7051 62.4691 35.8324 62.5009C36.1189 62.5645 36.4691 62.628 36.9147 62.6916C38.1243 62.8506 39.9069 62.946 41.8805 63.0095C41.6895 62.8506 41.4985 62.6916 41.3075 62.5009C41.0847 62.2784 41.0847 61.9286 41.3075 61.7061C41.5303 61.4836 41.8805 61.4836 42.1033 61.7061C42.8036 62.4691 43.7586 62.8506 44.7454 62.8506C45.7322 62.8506 46.7826 62.4691 47.5784 61.7061L47.6739 61.6743ZM40.0979 54.2988C40.9573 54.2988 41.6258 55.2526 41.6258 56.4288C41.6258 57.6051 40.9573 58.5588 40.0979 58.5588C39.2384 58.5588 38.57 57.6051 38.57 56.4288C38.57 55.2526 39.2384 54.2988 40.0979 54.2988ZM45.0637 58.4952C45.8595 58.4952 46.4961 59.0039 46.4961 59.6715C46.4961 60.3391 45.8595 60.8478 45.0637 60.8478C44.2679 60.8478 43.6312 60.3391 43.6312 59.6715C43.6312 59.0039 44.2679 58.4952 45.0637 58.4952ZM49.7429 54.2988C50.5706 54.2988 51.2709 55.2526 51.2709 56.4288C51.2709 57.6051 50.6024 58.5588 49.7429 58.5588C48.8835 58.5588 48.215 57.6051 48.215 56.4288C48.215 55.2526 48.8835 54.2988 49.7429 54.2988Z" fill="#424242"/>
</svg>
