<svg width="20" height="21" viewBox="0 0 20 21" fill="none" xmlns="http://www.w3.org/2000/svg">
<path d="M12.5 4.25H7.5L5.625 1.47656C5.35156 1.08594 5.66406 0.5 6.13281 0.5H13.8281C14.2969 0.5 14.6094 1.08594 14.3359 1.47656L12.5 4.25ZM7.5 5.5H12.5C12.6172 5.61719 12.8125 5.73438 13.0078 5.85156C15.1953 7.25781 20 10.3047 20 16.75C20 18.8203 18.3203 20.5 16.25 20.5H3.75C1.67969 20.5 0 18.8203 0 16.75C0 10.3047 4.76562 7.25781 6.99219 5.85156C7.14844 5.73438 7.34375 5.61719 7.5 5.5ZM10.7812 8.9375C10.7812 8.50781 10.4297 8.15625 10 8.15625C9.57031 8.15625 9.21875 8.50781 9.21875 8.9375V9.48438C8.90625 9.5625 8.59375 9.67969 8.32031 9.83594C7.77344 10.1484 7.30469 10.7344 7.34375 11.5547C7.34375 12.3359 7.8125 12.8438 8.28125 13.1562C8.71094 13.3906 9.25781 13.5469 9.6875 13.7031H9.76562C10.2344 13.8594 10.5859 13.9766 10.8594 14.1328C11.0547 14.25 11.0547 14.3281 11.0547 14.4453C11.0938 14.6406 11.0156 14.7578 10.8594 14.8359C10.6641 14.9922 10.3516 15.0312 10 15.0312C9.57031 15.0312 9.17969 14.875 8.63281 14.7188C8.55469 14.6797 8.4375 14.6406 8.35938 14.6016C7.92969 14.4844 7.5 14.6797 7.38281 15.1094C7.22656 15.5 7.46094 15.9688 7.85156 16.0859C7.92969 16.125 8.00781 16.125 8.08594 16.1641C8.4375 16.2812 8.78906 16.3984 9.17969 16.5156V17.0625C9.17969 17.4922 9.53125 17.8438 9.96094 17.8438C10.3906 17.8438 10.7422 17.4922 10.7422 17.0625V16.5547C11.0547 16.4766 11.3672 16.3594 11.6797 16.2031C12.2266 15.8516 12.6562 15.2656 12.6172 14.4453C12.6172 13.625 12.1875 13.1172 11.6797 12.8047C11.2109 12.5312 10.6641 12.3359 10.2344 12.2188H10.1953C9.6875 12.0625 9.33594 11.9453 9.10156 11.7891C8.90625 11.6719 8.86719 11.5938 8.86719 11.5547C8.86719 11.3984 8.94531 11.2812 9.14062 11.1641C9.33594 11.0469 9.64844 10.9688 9.96094 10.9688C10.3516 10.9688 10.7422 11.0859 11.1719 11.2031C11.6016 11.2812 12.0312 11.0469 12.1484 10.6172C12.2656 10.2266 11.9922 9.79688 11.6016 9.67969C11.3281 9.60156 11.0547 9.52344 10.7812 9.48438V8.9375Z" fill="white"/>
</svg>
