<svg width="27" height="27" viewBox="0 0 27 27" fill="none" xmlns="http://www.w3.org/2000/svg">
<path fill-rule="evenodd" clip-rule="evenodd" d="M11.4555 24.5806V14.6041H8.09961V10.7161H11.4555V7.85411C11.388 7.17473 11.4696 6.48881 11.6947 5.84423C11.9197 5.19966 12.2827 4.61197 12.7583 4.12219C13.234 3.63242 13.8108 3.25236 14.4485 3.00855C15.0862 2.76474 15.7694 2.66306 16.4505 2.71061C17.4529 2.7047 18.4549 2.75879 19.4509 2.87261V6.34211H17.3921C17.1307 6.28666 16.8597 6.29674 16.6031 6.37144C16.3465 6.44614 16.1124 6.58315 15.9216 6.77025C15.7309 6.95736 15.5893 7.18875 15.5097 7.44381C15.43 7.69887 15.4146 7.96968 15.465 8.23211V10.7161H19.3159L18.813 14.6041H15.4717V24.5806H11.4555Z" fill="white"/>
</svg>
