<svg width="81" height="91" viewBox="0 0 81 91" fill="none" xmlns="http://www.w3.org/2000/svg">
<path d="M22.1805 73.7889L24.0178 74.8025C23.4159 75.4677 22.719 76.228 21.8638 77.0516C21.547 77.3367 20.7868 78.0652 19.583 79.2373C18.6011 80.1876 17.8408 80.9161 17.334 81.4229L15.4651 79.7758C15.7185 78.4137 15.9719 77.3367 16.1936 76.5447C16.4787 75.4994 16.8272 74.5491 17.239 73.6939C17.6508 72.8386 18.1893 71.92 18.9178 70.938L20.1849 72.3318C19.6464 73.092 19.1712 73.8522 18.7911 74.6125C18.411 75.3727 18.0626 76.228 17.7458 77.1149C17.4924 77.8118 17.239 78.6988 16.9539 79.7758L22.2122 73.7572L22.1805 73.7889ZM25.5699 74.4858L31.24 76.3864L30.7649 77.6534C30.2581 77.6534 29.6879 77.5901 29.086 77.495C28.9276 77.4634 28.009 77.21 26.3302 76.7348L25.665 78.9205L27.7239 79.7124L26.9637 81.6447L24.6513 80.631L23.6376 83.5136L26.742 84.5906L26.3302 85.921L21.642 84.1155L25.5699 74.4541V74.4858ZM36.0866 78.3503C35.0096 78.2236 34.2176 78.7938 33.7108 80.1242C33.4574 80.7577 33.2357 81.8981 33.0456 83.4819C32.9189 84.5589 32.8872 85.4142 32.9506 85.9527C33.0773 87.0614 33.5524 87.6632 34.3127 87.7583C35.1363 87.8533 35.7381 87.5049 36.1182 86.6813C36.2449 86.4278 36.435 85.6993 36.7201 84.5273H33.6158L34.186 81.8981L38.8107 82.4366C38.7474 82.8484 38.589 83.672 38.2722 84.939C38.1139 85.6359 37.9872 86.2378 37.9238 86.7129C37.8604 87.1564 37.7654 87.885 37.6387 88.8669C37.512 89.8806 37.417 90.3874 37.417 90.4508H35.9282C35.9915 90.1974 36.0549 89.9123 36.0866 89.5638C36.1182 89.2154 36.1499 88.9303 36.1499 88.7086C36.1499 88.4868 36.0866 88.2651 35.9598 88.0434C35.9282 88.4235 35.6748 88.6452 35.2313 88.8036C34.8828 88.9303 34.5027 88.962 34.0909 88.8986C32.8555 88.7402 32.0003 88.0434 31.4934 86.808C31.0816 85.7943 30.9549 84.6223 31.1133 83.3235C31.3034 81.708 31.7469 80.3459 32.4437 79.3323C33.3307 78.0019 34.5027 77.4317 35.9598 77.6218C36.9101 77.7485 37.6704 78.1603 38.1772 78.8888C38.6524 79.5857 38.8424 80.4093 38.7157 81.3913L37.0685 81.3279C37.1636 80.4726 37.1952 79.8708 37.1636 79.5223C37.0685 78.7938 36.7201 78.382 36.1182 78.3186L36.0866 78.3503ZM43.6573 88.2968L42.2001 88.4868C42.2001 86.808 42.3268 85.2558 42.4852 83.862C42.707 82.2465 43.0237 80.7577 43.4989 79.364L45.938 78.8255C46.3498 80.5043 46.7299 81.9931 47.0783 83.3552C47.5218 85.0341 47.9336 86.5545 48.3454 87.8216L46.5398 88.0434L45.8113 84.6856L43.879 85.0974L43.6889 88.3284L43.6573 88.2968ZM44.0691 82.2465L45.1777 82.0248L44.7659 80.0292L44.4175 80.3459L44.0691 82.2465ZM53.9838 87.1247L54.1105 87.5049L52.6851 88.1701C52.495 87.5999 52.1149 86.3962 51.5447 84.5273C51.2596 83.6086 51.0379 82.8484 50.8478 82.3099C50.6895 81.8664 50.341 80.9795 49.7708 79.5857C49.4858 78.8888 49.264 78.3186 49.1056 77.9068L50.2777 77.4C50.8795 77.5584 51.4814 77.8435 52.1149 78.1603C52.6217 78.4137 53.1919 78.7621 53.8255 79.2056C54.364 79.5857 54.9341 79.9658 55.4726 80.3459C55.3776 79.8074 55.2509 79.3006 55.1242 78.7621C54.9975 78.2553 54.8391 77.7168 54.649 77.21C54.5223 76.8615 54.3956 76.5447 54.2689 76.2913C54.1422 76.0379 53.9838 75.6895 53.7304 75.2777C54.1105 75.151 54.554 75.0876 55.0292 75.0876C55.1875 75.5628 55.3776 76.133 55.5677 76.7665C56.0428 78.287 56.3279 79.2373 56.4546 79.6174C56.6763 80.2509 56.9298 80.8528 57.1832 81.4546C57.4683 82.0565 58.0068 83.1968 58.862 84.8123L56.9931 85.3192C56.0745 84.4322 55.1242 83.577 54.2056 82.69C53.0969 81.6764 52.0832 80.8844 51.1963 80.3459C51.418 80.9795 51.7031 81.708 52.0516 82.5316C52.4 83.3552 52.7484 84.1471 53.0969 84.9707C53.4453 85.7626 53.7304 86.4912 53.9205 87.0931L53.9838 87.1247ZM65.1657 74.7392C65.7675 75.5944 66.1476 76.6398 66.306 77.8752C66.4961 79.3323 66.211 80.3143 65.4508 80.8844C64.5638 81.518 63.4235 81.613 61.998 81.1379C60.6993 80.7261 59.6856 80.0608 59.0521 79.1422C58.2918 78.0652 57.88 76.9565 57.8167 75.7845C57.7533 74.4541 58.1968 73.4088 59.2105 72.6802C60.0657 72.0783 61.1427 72.0467 62.4732 72.6169C63.6135 73.1237 64.5005 73.8206 65.1657 74.7392ZM61.1744 77.8435C61.4912 78.3186 62.093 78.8571 62.9483 79.5223C63.962 80.2826 64.5955 80.5677 64.8806 80.3459C65.1023 80.1876 64.9756 79.554 64.5005 78.4453C64.1203 77.5267 63.7719 76.8615 63.4868 76.4814C63.17 76.0062 62.5365 75.4044 61.6179 74.6125C60.5409 73.6939 59.8757 73.3137 59.5906 73.5038C59.3372 73.6939 59.4639 74.3907 59.9707 75.6261C60.4142 76.6398 60.7626 77.3683 61.1111 77.8435H61.1744Z" fill="#424242"/>
<path fill-rule="evenodd" clip-rule="evenodd" d="M33.0454 50.4754L33.1405 50.9189L33.3622 50.5705H33.3939V50.5388L33.8373 49.8736C35.3261 47.5295 35.7379 44.6469 34.7243 42.0495C32.9504 37.4563 29.0225 34.7955 24.3027 33.8135L23.8909 33.7185L23.7325 34.1303C23.0039 36.0309 22.7822 38.6917 23.0673 40.6874C23.8592 45.914 27.7554 48.8599 32.5703 50.3487L33.0771 50.5071L33.0454 50.4754ZM24.176 34.2887C28.8958 35.2707 32.5703 37.9315 34.2491 42.2078C35.5795 45.6606 34.0591 48.5432 33.4255 49.5885C33.2988 48.9233 33.1405 48.2897 32.9504 47.6562V47.7512C32.887 47.5929 33.3939 43.6966 32.887 42.2078C32.887 42.2078 32.7287 45.0904 32.6336 46.6109V46.6742C32.0001 44.7736 31.1131 43.0314 30.1628 41.5109C30.1628 41.5109 29.7511 38.1532 29.0225 37.2029C29.0225 37.2029 29.8461 40.2756 29.656 40.719C29.656 40.719 29.656 40.719 29.656 40.7507C27.3436 37.3613 24.9362 35.3023 24.9362 35.3023C26.3617 36.9178 27.5337 38.565 28.5157 40.1489C26.3933 39.2936 24.2393 37.8048 24.2393 37.8048C24.8412 39.0402 28.8008 40.6874 28.8324 40.6874C29.8144 42.3662 30.5746 43.95 31.1448 45.3121C30.0361 44.932 26.3933 43.0631 26.3933 43.0631C27.6604 44.3935 31.3666 45.8506 31.3666 45.8506C32.1902 47.9096 32.6019 49.4301 32.697 49.8419C19.6779 45.8506 24.176 34.2887 24.176 34.2887Z" fill="#424242"/>
<path fill-rule="evenodd" clip-rule="evenodd" d="M40.6825 59.1856L40.334 60.1676L39.9539 59.3123H39.8589L39.8906 59.2173L39.162 57.5701C36.6279 51.8683 36.7229 45.343 39.8589 39.8946C45.3706 30.2966 55.0003 25.6718 65.8337 25.0699L66.784 25.0066L67.0057 25.9569C68.0194 30.455 67.5759 36.4418 66.2455 40.7815C62.7294 52.1218 53.068 57.3801 41.8545 59.0589L40.6825 59.249V59.1856ZM65.8971 26.1786C55.0637 26.7488 46.0042 31.4369 40.8409 40.4331C36.7229 47.6237 39.0987 54.6242 40.2073 57.095C40.7142 55.6695 41.2527 54.3074 41.8862 52.977L41.7912 53.1988C42.0446 52.8503 42.2346 44.0442 43.8818 40.9399C43.8818 40.9399 43.28 47.4336 42.9632 50.7913L42.8999 50.9497C45.0222 46.9268 47.588 43.379 50.2171 40.3381C50.2171 40.3381 52.2761 33.0208 54.1767 31.1202C54.1767 31.1202 51.2942 37.6772 51.6109 38.6909C51.6109 38.6909 51.6109 38.7542 51.6109 38.7859C57.8829 32.0071 63.9331 28.2376 63.9331 28.2376C60.2269 31.3102 57.0593 34.6046 54.3351 37.8356C59.3083 36.6002 64.63 34.0661 64.63 34.0661C62.8561 36.5685 53.5432 38.9126 53.4165 38.9443C50.6606 42.302 48.4433 45.5964 46.6694 48.4473C49.2985 48.0038 58.0096 45.0262 58.0096 45.0262C54.7786 47.592 46.0358 49.5243 46.0042 49.5243C43.4384 53.8323 42.0446 57.0316 41.6961 57.9186C71.979 53.4205 65.8971 26.2103 65.8971 26.2103V26.1786Z" fill="#424242"/>
<path fill-rule="evenodd" clip-rule="evenodd" d="M32.6348 46.1995C33.0149 58.2366 35.0106 70.0836 35.169 70.8755C35.169 70.9072 35.169 70.9389 35.2006 70.9389C35.454 70.9389 36.4994 66.4408 41.7577 57.6981C41.821 57.5714 40.8074 56.336 40.2055 57.0962C38.6851 59.0602 36.4677 65.047 36.4677 65.047L32.6348 46.1995Z" fill="#424242"/>
<path d="M37.5472 0.995361C39.036 0.995361 40.3348 1.3438 41.3484 2.10404C42.4888 2.92763 43.059 4.06799 43.0906 5.52511C43.0906 6.66547 43.0273 7.64745 42.8372 8.40769C42.6155 9.35798 42.2037 10.0549 41.6335 10.5617C40.9683 11.1319 40.0814 11.417 38.941 11.4486C38.6876 11.4486 38.4659 11.4486 38.2758 11.4486C38.0857 11.4486 37.864 11.417 37.674 11.3536L37.5472 0.995361ZM39.2261 10.0865C40.113 9.83313 40.7466 9.38966 41.1267 8.72445C41.4751 8.15427 41.6335 7.36236 41.6018 6.38038C41.6018 5.58847 41.4435 4.85991 41.1901 4.22637C40.8416 3.37111 40.3348 2.92763 39.6696 2.95931C39.3211 2.95931 38.9727 3.02266 38.6242 3.11769L39.1944 10.0865H39.2261Z" fill="#424242"/>
<path d="M45.304 5.05088C45.4307 4.38567 45.494 3.72046 45.5891 3.02358C45.6524 2.32669 45.7158 1.59813 45.7474 0.837891L48.1865 1.75651C47.8698 2.70681 47.6797 3.37202 47.553 3.75214C47.3313 4.51238 47.1412 5.20926 46.9828 5.84279C46.8244 6.47633 46.6977 7.14153 46.571 7.80674V8.06015C46.4443 8.47195 46.4443 8.78872 46.476 9.01045C46.5394 9.3589 46.7294 9.54895 47.0779 9.61231C47.648 9.70734 48.1232 9.45393 48.535 8.78872C48.8517 8.31357 49.0735 7.74339 49.1685 7.07818C49.2952 6.25459 49.3902 5.33597 49.4219 4.38567C49.4219 3.62543 49.4219 2.70681 49.3586 1.66148L52.1144 1.88322C51.766 2.83352 51.4809 3.75214 51.2275 4.60741C50.9741 5.46267 50.784 6.31794 50.6256 7.23656C50.3722 8.72536 49.9287 9.73901 49.3269 10.2458C48.8201 10.6893 48.1549 10.816 47.3313 10.6893C46.5077 10.5626 45.8741 10.2142 45.3673 9.70734C44.8288 9.13716 44.6071 8.47195 44.7338 7.71171C44.7338 7.64836 44.8605 7.07818 45.1139 6.03285C45.1773 5.74776 45.2406 5.39932 45.304 5.0192V5.05088Z" fill="#424242"/>
<path d="M56.5205 5.74634L54.8416 4.95443L55.4752 2.99048L63.9645 6.69664L63.3626 7.58358L58.1677 5.87305L55.0317 14.0139L52.8777 13.032L56.5205 5.74634Z" fill="#424242"/>
<path d="M35.8982 6.19068C36.12 7.20433 36.0883 8.31301 35.7398 9.51672C35.3597 10.9422 34.6945 11.7341 33.7759 11.9558C32.7306 12.2092 31.6219 11.8291 30.4815 10.8788C29.4362 9.99187 28.771 8.97822 28.5176 7.90121C28.2325 6.60247 28.2642 5.43044 28.6443 4.32176C29.0878 3.05469 29.9114 2.29445 31.1151 2.00937C32.1287 1.78763 33.1424 2.16775 34.156 3.21308C35.0113 4.10002 35.5815 5.11367 35.8349 6.22235L35.8982 6.19068ZM31.02 7.48942C31.1467 8.02792 31.4952 8.78816 32.0337 9.73845C32.6672 10.8155 33.1424 11.3223 33.5225 11.2589C33.7759 11.1956 33.9343 10.562 33.9343 9.35834C33.9343 8.34468 33.8709 7.61612 33.7759 7.14097C33.6492 6.60247 33.3008 5.77888 32.7622 4.70188C32.1287 3.43481 31.6536 2.83296 31.3368 2.89631C31.02 2.95966 30.8617 3.65655 30.8617 5.01864C30.8617 6.12732 30.925 6.95091 31.0517 7.48942H31.02Z" fill="#424242"/>
<path d="M29.0587 13.0646L27.0948 14.1099C27.0314 13.8882 26.9681 13.6665 26.873 13.4764C26.8097 13.2863 26.7146 13.0646 26.5879 12.8112C26.3029 12.2093 26.0178 11.6708 25.6693 11.2274C25.1308 10.5305 24.6557 10.2454 24.2755 10.4354C24.0855 10.5305 23.9588 10.6572 23.8638 10.8156L26.0178 14.395L24.0855 15.2503C23.8954 14.5851 23.6737 13.9515 23.4836 13.318C23.2619 12.7162 23.0402 12.1143 22.8184 11.5758C22.5967 11.069 22.3116 10.4988 21.9632 9.83359C21.6147 9.16838 21.2663 8.50317 20.9178 7.83796C20.5694 7.17275 20.2843 6.5709 20.0626 6.06407C20.4744 5.81066 20.9495 5.55724 21.4563 5.33551C22.5333 4.82868 23.4203 4.6703 24.0855 4.82868C24.8457 4.98707 25.4793 5.58892 25.9544 6.66593C26.1445 7.07772 26.1761 7.55287 26.0494 8.0597C25.9227 8.5982 25.6693 8.97832 25.3209 9.23173C25.9227 9.45347 26.6196 9.99197 27.4432 10.8472C28.1401 11.5758 28.6786 12.3044 29.1221 13.0012L29.0587 13.0646ZM21.9315 6.34916L23.2936 9.5485L23.452 9.48514C23.8638 9.29508 24.1172 9.1367 24.2122 8.97832C24.3389 8.78826 24.3706 8.50317 24.3072 8.09137C24.2439 7.80628 24.1488 7.52119 24.0538 7.26778C23.8321 6.79263 23.547 6.50754 23.1985 6.34916C22.8501 6.19078 22.4066 6.19078 21.9315 6.34916Z" fill="#424242"/>
<path d="M69.0619 17.6912C68.3967 18.4832 67.478 19.1167 66.306 19.5602C64.9439 20.0987 63.8986 20.067 63.2017 19.4651C62.3781 18.7682 61.998 17.6596 62.093 16.1708C62.1881 14.8087 62.5999 13.6683 63.3284 12.813C64.1837 11.7994 65.1657 11.1342 66.2743 10.7857C67.5731 10.3739 68.6818 10.5957 69.6321 11.3876C70.424 12.0845 70.7091 13.1298 70.4873 14.5236C70.2973 15.759 69.8221 16.8043 69.0936 17.6596L69.0619 17.6912ZM65.1023 14.5553C64.7222 14.9987 64.3421 15.6956 63.8986 16.7093C63.3918 17.8496 63.2967 18.5465 63.5818 18.7999C63.8036 18.99 64.3737 18.7049 65.324 17.9763C66.1476 17.3745 66.6861 16.8993 67.0029 16.5192C67.383 16.0757 67.8265 15.3155 68.365 14.2385C68.9985 12.9714 69.1886 12.2429 68.9352 12.0211C68.6818 11.7994 68.0482 12.1162 66.9712 12.9081C66.0843 13.5733 65.4507 14.1118 65.1023 14.5553Z" fill="#424242"/>
<path d="M15.9729 10.8786L17.7785 13.4444C18.0002 13.3811 18.222 13.3177 18.412 13.1593C18.6654 13.0009 18.7288 12.6842 18.6021 12.2724C18.5071 11.9556 18.3487 11.6388 18.1269 11.3538C17.8418 10.9736 17.5251 10.7519 17.1766 10.6886C16.8282 10.6252 16.4164 10.6886 15.9729 10.9103V10.8786ZM18.2536 14.1413L21.1996 17.309L19.6157 18.6394C19.2673 17.9742 18.9822 17.404 18.6971 16.9288C18.412 16.4537 18.0953 15.9469 17.7468 15.4717C17.43 15.0282 16.6698 14.0463 15.4978 12.5891C14.9276 11.8606 14.4524 11.2904 14.1674 10.8469C14.6108 10.2768 15.1177 9.80161 15.6878 9.42149C16.3847 8.91466 17.0499 8.7246 17.6835 8.88299C18.2536 9.00969 18.8238 9.45316 19.3306 10.1817C19.7108 10.7202 19.9325 11.3854 19.9642 12.114C19.9642 12.9376 19.7108 13.5394 19.1723 13.9196C19.0456 14.0146 18.8555 14.0779 18.6338 14.1413C18.5387 14.1413 18.4437 14.1413 18.2853 14.1413H18.2536Z" fill="#424242"/>
<path d="M13.8829 72.7112C14.2313 73.0597 14.263 73.6615 13.8829 74.01C13.5345 74.3584 12.9326 74.3901 12.5842 74.01C8.68794 70.2088 5.64699 65.679 3.55633 60.7375C1.46568 55.7959 0.388672 50.4743 0.388672 45.0259C0.388672 39.5775 1.46568 34.2875 3.52465 29.3776C5.58363 24.4678 8.59291 19.9697 12.4575 16.1368C12.8059 15.7884 13.4078 15.7884 13.7562 16.1368C14.1046 16.5169 14.1046 17.0871 13.7562 17.4356C10.0817 21.0784 7.19914 25.3547 5.23519 30.0428C3.27124 34.731 2.22591 39.7992 2.22591 44.9625C2.22591 50.1258 3.27124 55.2574 5.23519 59.9772C7.19914 64.6654 10.1134 69.0051 13.8512 72.6479L13.8829 72.7112Z" fill="#424242"/>
<path d="M67.9563 74.0436C67.5762 74.3921 67.006 74.3921 66.6576 74.0436C66.3091 73.6952 66.3091 73.0933 66.6576 72.7449C70.3637 69.1021 73.278 64.7941 75.2736 60.0743C77.2376 55.3861 78.2829 50.2862 78.2829 45.0595C78.2829 40.5298 77.491 36.0634 75.9705 31.8821C74.45 27.7008 72.201 23.7412 69.3184 20.2884C69.0016 19.9083 69.0333 19.3065 69.4451 18.9897C69.8252 18.6729 70.4271 18.7046 70.7439 19.1164C73.7848 22.7592 76.1289 26.8772 77.7127 31.2802C79.2965 35.6833 80.1518 40.3397 80.1518 45.0912C80.1518 50.5396 79.0431 55.8613 76.9841 60.8028C74.9252 65.7444 71.8525 70.2424 67.9563 74.0753V74.0436Z" fill="#424242"/>
</svg>
