<svg width="20" height="24" viewBox="0 0 20 24" fill="none" xmlns="http://www.w3.org/2000/svg">
<path fill-rule="evenodd" clip-rule="evenodd" d="M18.2234 9.38136C18.2234 14.9074 13.1764 19.8784 10.9904 21.7734C10.7166 22.0138 10.3647 22.1465 10.0004 22.1465C9.63601 22.1465 9.2841 22.0138 9.01037 21.7734C6.82337 19.8784 1.77637 14.9064 1.77637 9.38136C1.80025 7.21606 2.67716 5.14755 4.21677 3.62483C5.75638 2.1021 7.83444 1.24805 9.99987 1.24805C12.1653 1.24805 14.2434 2.1021 15.783 3.62483C17.3226 5.14755 18.1995 7.21606 18.2234 9.38136ZM13.3684 8.89736C13.3684 9.33965 13.2813 9.77761 13.112 10.1862C12.9427 10.5949 12.6947 10.9661 12.3819 11.2789C12.0692 11.5916 11.6979 11.8397 11.2892 12.009C10.8806 12.1782 10.4427 12.2654 10.0004 12.2654C9.55807 12.2654 9.12011 12.1782 8.71149 12.009C8.30287 11.8397 7.93158 11.5916 7.61883 11.2789C7.30608 10.9661 7.058 10.5949 6.88874 10.1862C6.71948 9.77761 6.63237 9.33965 6.63237 8.89736C6.63237 8.00411 6.98721 7.14745 7.61883 6.51583C8.25045 5.8842 9.10712 5.52936 10.0004 5.52936C10.8936 5.52936 11.7503 5.8842 12.3819 6.51583C13.0135 7.14745 13.3684 8.00411 13.3684 8.89736Z" fill="#E62974" stroke="black" stroke-width="2" stroke-linecap="round" stroke-linejoin="round"/>
</svg>
