<svg width="27" height="27" viewBox="0 0 27 27" fill="none" xmlns="http://www.w3.org/2000/svg">
<path fill-rule="evenodd" clip-rule="evenodd" d="M13.5002 2.69922C10.5673 2.69922 10.1994 2.71159 9.04744 2.76447C7.8977 2.81622 7.11244 2.99959 6.4262 3.26622C5.70572 3.53733 5.05305 3.96234 4.5137 4.51159C3.96406 5.05086 3.53867 5.70353 3.2672 6.42409C3.00057 7.11147 2.8172 7.89784 2.76545 9.04647C2.71145 10.1985 2.7002 10.5652 2.7002 13.4992C2.7002 16.4321 2.71257 16.8 2.76545 17.952C2.8172 19.1017 3.00057 19.887 3.2672 20.5732C3.53834 21.2937 3.96334 21.9463 4.51257 22.4857C5.11332 23.0876 5.71632 23.4566 6.42507 23.7322C7.11245 23.9988 7.8977 24.1822 9.04632 24.234C10.1994 24.2868 10.5673 24.2992 13.5002 24.2992C16.4331 24.2992 16.8009 24.2868 17.9529 24.234C19.1027 24.1822 19.8879 23.9988 20.5742 23.7322C21.2947 23.4611 21.9473 23.0361 22.4867 22.4868C23.0363 21.9476 23.4617 21.2949 23.7332 20.5743C23.9998 19.887 24.1832 19.1006 24.2349 17.9531C24.2878 16.8 24.3002 16.4321 24.3002 13.4992C24.3002 10.5663 24.2878 10.1985 24.2349 9.04647C24.1821 7.89672 23.9998 7.11147 23.7332 6.42522C23.462 5.70476 23.0371 5.0521 22.4878 4.51272C21.9486 3.96306 21.2959 3.53766 20.5753 3.26622C19.8879 2.99959 19.1016 2.81622 17.9529 2.76447C16.8009 2.71047 16.4342 2.69922 13.5002 2.69922ZM13.5002 4.64547C16.3836 4.64547 16.7256 4.65672 17.8652 4.70847C18.9171 4.75572 19.4886 4.93234 19.8699 5.07972C20.3739 5.27547 20.7339 5.50947 21.1119 5.88747C21.4899 6.26547 21.7239 6.62547 21.9197 7.12947C22.0671 7.50972 22.2426 8.08234 22.2909 9.13534C22.3427 10.2738 22.3539 10.6158 22.3539 13.4992C22.3539 16.3826 22.3427 16.7246 22.2909 17.8642C22.2426 18.9161 22.0671 19.4887 21.9197 19.869C21.7463 20.3382 21.4699 20.7626 21.1108 21.111C20.7627 21.4695 20.3387 21.7455 19.8699 21.9187C19.4886 22.0661 18.9171 22.2427 17.8641 22.29C16.7256 22.3417 16.3836 22.353 13.4991 22.353C10.6157 22.353 10.2748 22.3417 9.13632 22.29C8.08332 22.2427 7.51069 22.0661 7.13045 21.9187C6.66128 21.7457 6.23688 21.4697 5.88845 21.111C5.52976 20.7625 5.25375 20.3381 5.08069 19.869C4.93332 19.4887 4.7567 18.9161 4.70944 17.8631C4.65657 16.7246 4.64645 16.3826 4.64645 13.4992C4.64645 10.6158 4.6577 10.2738 4.70944 9.13422C4.7567 8.08234 4.93332 7.51084 5.08069 7.12947C5.27644 6.62547 5.51045 6.26547 5.88845 5.88747C6.23688 5.52879 6.66128 5.25277 7.13045 5.07972C7.51069 4.93234 8.08332 4.75572 9.13632 4.70847C10.2748 4.65672 10.6168 4.64547 13.5002 4.64547ZM13.5002 17.0992C12.5454 17.0992 11.6297 16.7199 10.9546 16.0448C10.2795 15.3697 9.9002 14.454 9.9002 13.4992C9.9002 12.5444 10.2795 11.6288 10.9546 10.9536C11.6297 10.2785 12.5454 9.89922 13.5002 9.89922C14.455 9.89922 15.3706 10.2785 16.0458 10.9536C16.7209 11.6288 17.1002 12.5444 17.1002 13.4992C17.1002 14.454 16.7209 15.3697 16.0458 16.0448C15.3706 16.7199 14.455 17.0992 13.5002 17.0992ZM13.5002 7.95297C12.7719 7.95297 12.0506 8.09643 11.3777 8.37515C10.7048 8.65388 10.0934 9.06241 9.5784 9.57743C9.06339 10.0924 8.65485 10.7039 8.37613 11.3768C8.0974 12.0497 7.95394 12.7709 7.95394 13.4992C7.95394 14.2276 8.0974 14.9488 8.37613 15.6217C8.65485 16.2946 9.06339 16.906 9.5784 17.421C10.0934 17.936 10.7048 18.3446 11.3777 18.6233C12.0506 18.902 12.7719 19.0455 13.5002 19.0455C14.9712 19.0455 16.3819 18.4611 17.422 17.421C18.4621 16.3809 19.0464 14.9702 19.0464 13.4992C19.0464 12.0283 18.4621 10.6176 17.422 9.57743C16.3819 8.5373 14.9712 7.95297 13.5002 7.95297ZM20.5607 7.73472C20.5607 8.07844 20.4242 8.40808 20.1811 8.65113C19.9381 8.89418 19.6084 9.03072 19.2647 9.03072C18.921 9.03072 18.5913 8.89418 18.3483 8.65113C18.1052 8.40808 17.9687 8.07844 17.9687 7.73472C17.9687 7.391 18.1052 7.06136 18.3483 6.81831C18.5913 6.57526 18.921 6.43872 19.2647 6.43872C19.6084 6.43872 19.9381 6.57526 20.1811 6.81831C20.4242 7.06136 20.5607 7.391 20.5607 7.73472Z" fill="white"/>
</svg>
