<svg width="202" height="27" viewBox="0 0 202 27" fill="none" xmlns="http://www.w3.org/2000/svg">
<path fill-rule="evenodd" clip-rule="evenodd" d="M122.611 26.113H107.562V0.265537H109.127V24.5662H122.611V26.1215V26.113ZM129.023 1.06006C126.65 2.0825 124.629 3.77503 123.205 5.92977C121.782 8.08451 121.02 10.6076 121.012 13.1893C121.007 14.9477 121.364 16.6884 122.061 18.303C122.702 19.872 123.647 21.2989 124.841 22.5015C126.036 23.704 127.457 24.6586 129.023 25.31C130.611 25.9894 132.319 26.3461 134.047 26.3596C135.775 26.3731 137.488 26.043 139.087 25.3885C140.685 24.734 142.138 23.7683 143.36 22.5475C144.581 21.3267 145.548 19.8752 146.203 18.2776C146.89 16.6586 147.243 14.9181 147.243 13.1597C147.243 11.4013 146.89 9.66082 146.203 8.04176C145.543 6.44863 144.573 5.00235 143.349 3.78691C142.125 2.57148 140.672 1.6111 139.074 0.961549C137.475 0.312 135.764 -0.013777 134.038 0.00313467C132.313 0.0200464 130.608 0.37931 129.023 1.06006ZM122.543 13.1977C122.535 15.1093 123.002 16.9929 123.903 18.6796C124.803 20.3662 126.108 21.8032 127.701 22.8614C129.295 23.9196 131.126 24.566 133.031 24.7426C134.936 24.9192 136.854 24.6204 138.615 23.8731C141.399 22.705 143.607 20.4837 144.756 17.6944C145.367 16.2741 145.678 14.7434 145.67 13.1977C145.679 11.6848 145.39 10.185 144.818 8.7838C144.247 7.38264 143.405 6.10762 142.341 5.03155C141.277 3.95547 140.011 3.09941 138.615 2.51225C137.22 1.92509 135.722 1.61832 134.208 1.60947H134.081C132.042 1.5948 130.037 2.13224 128.278 3.16472C126.524 4.1897 125.07 5.65799 124.064 7.42208C123.057 9.18617 122.533 11.1839 122.543 13.2146V13.1977ZM150.458 26.1046V0.214822H159.67C160.553 0.202098 161.428 0.3737 162.241 0.718646C163.054 1.06359 163.786 1.57428 164.39 2.21804C165.018 2.84976 165.514 3.60062 165.848 4.42653C166.182 5.25243 166.348 6.13673 166.335 7.02747C166.349 7.92645 166.185 8.81928 165.853 9.65476C165.52 10.4902 165.026 11.2519 164.398 11.8961C163.8 12.5514 163.069 13.0715 162.253 13.4214C161.438 13.7712 160.557 13.9428 159.67 13.9246H152.057V26.1215L150.458 26.1046ZM152.057 12.3609H159.67C160.335 12.3668 160.995 12.2328 161.605 11.9678C162.216 11.7029 162.764 11.3127 163.214 10.8226C164.167 9.80856 164.698 8.46953 164.698 7.07819C164.698 5.68684 164.167 4.34781 163.214 3.33376C162.762 2.84544 162.214 2.45592 161.604 2.18971C160.994 1.9235 160.335 1.78637 159.67 1.78697H152.057V12.3609ZM182.771 10.3577V11.913H170.328V24.5916H183.752V26.1468H168.771V0.265537H183.82V1.82078H170.286V10.3577H182.771ZM200.196 4.84675L198.725 5.35389C198.396 4.20372 197.694 3.19556 196.728 2.48852C195.839 1.85523 194.775 1.51538 193.683 1.51649C193.113 1.49616 192.545 1.58829 192.01 1.78761C191.476 1.98693 190.986 2.28953 190.569 2.67811C190.152 3.0667 189.816 3.53364 189.579 4.05223C189.343 4.57083 189.211 5.13091 189.191 5.70044V5.94556C189.184 6.55321 189.333 7.15255 189.623 7.68676C189.91 8.20857 190.305 8.66368 190.782 9.02224C191.314 9.4181 191.88 9.76601 192.473 10.0619C193.099 10.3746 193.759 10.6789 194.461 10.9663C195.163 11.2537 195.857 11.558 196.551 11.8792C197.256 12.1856 197.936 12.5503 198.581 12.9695C199.2 13.3599 199.768 13.8256 200.273 14.3557C200.771 14.9134 201.15 15.5661 201.389 16.2744C201.693 17.0611 201.839 17.8996 201.82 18.7425C201.844 20.1744 201.441 21.5809 200.662 22.7828C199.926 23.9505 198.885 24.8946 197.65 25.5129C196.41 26.1267 195.041 26.4367 193.658 26.4173C192.742 26.4171 191.834 26.2657 190.968 25.9693C190.101 25.6741 189.293 25.2277 188.582 24.6508C187.808 23.9905 187.179 23.1757 186.738 22.2587C186.196 21.2025 185.849 20.0571 185.715 18.8778L187.271 18.6918C187.412 20.463 188.204 22.1192 189.496 23.3406C190.667 24.3573 192.174 24.9026 193.725 24.8705C194.834 24.8709 195.929 24.6255 196.931 24.1521C197.924 23.6677 198.768 22.9264 199.376 22.0052C199.997 21.0232 200.309 19.878 200.273 18.7172C200.282 17.9955 200.135 17.2803 199.841 16.621C199.569 16.0193 199.174 15.481 198.682 15.0404C198.158 14.5921 197.591 14.1958 196.99 13.857C196.352 13.4994 195.694 13.1777 195.02 12.8934L192.922 11.9975C192.252 11.6957 191.6 11.3571 190.968 10.9832C190.361 10.6397 189.794 10.2316 189.276 9.76605C188.783 9.3098 188.388 8.75751 188.117 8.14319C187.822 7.46344 187.675 6.72872 187.686 5.98782C187.674 5.20666 187.818 4.43102 188.108 3.70565C188.399 2.98029 188.83 2.31956 189.377 1.76161C189.94 1.18001 190.618 0.722968 191.369 0.420103C192.119 0.117237 192.925 -0.0246922 193.734 0.00351195C195.139 0.0110295 196.506 0.460541 197.642 1.28828C198.841 2.17152 199.729 3.41124 200.179 4.82984L200.196 4.84675Z" fill="white"/>
<path fill-rule="evenodd" clip-rule="evenodd" d="M75.0223 0.629818H77.763V16.3936C77.7215 18.3654 78.4566 20.2746 79.8101 21.7101C80.4153 22.3934 81.1588 22.9404 81.9915 23.3149C82.8242 23.6894 83.727 23.8829 84.6402 23.8824C85.8394 23.8998 87.0169 23.5616 88.0237 22.9104C89.074 22.2428 89.929 21.3097 90.5022 20.2056C91.1349 19.0355 91.4581 17.7234 91.4411 16.3936V0.629818H94.1818V16.3682C94.1977 18.1391 93.761 19.8846 92.913 21.4397C92.1105 22.957 90.9196 24.2345 89.4617 25.1418C88.0115 26.0396 86.3376 26.5112 84.6317 26.5027C83.3388 26.4951 82.063 26.2067 80.8928 25.6574C79.7407 25.1512 78.7044 24.4148 77.8476 23.4936C76.067 21.5405 75.0805 18.9933 75.0815 16.3513V0.629818H75.0223ZM60.1854 15.9794H68.5089L64.2795 7.19735L60.1431 15.9794H60.1854ZM58.9334 18.5828H69.5748L72.7976 26.1899H75.7329L64.2879 0.350889L53.9342 23.7894L44.2149 10.2656L55.2115 0.596009H51.1258L40.2476 10.2318V0.596009H37.5069V24.5502L26.7725 0.333984L16.385 23.7725L6.66564 10.2487L17.6623 0.579104H13.5766L2.74069 10.2149V0.579104H0V26.1899H2.74069V13.7395L4.74546 12.049L14.6847 26.1899H18.2544L21.435 18.5828H32.034L35.2569 26.1899H40.1969V13.7395L42.2101 12.049L52.1494 26.2237H55.719L58.8996 18.6166L58.9334 18.5828ZM22.6361 15.9794L26.781 7.18044L31.0105 15.9625L22.6361 15.9794Z" fill="white"/>
</svg>
