<svg width="251" height="40" viewBox="0 0 251 40" fill="none" xmlns="http://www.w3.org/2000/svg">
<path fill-rule="evenodd" clip-rule="evenodd" d="M11.7835 16.5958C18.3735 13.2749 23.1866 7.59061 17.9077 0C36.0217 13.9046 27.8704 39.8162 11.5161 39.8162C10.3027 39.8861 9.08887 39.6857 7.96229 39.2296C5.80617 38.4882 3.93514 37.0924 2.61004 35.237C1.28494 33.3815 0.571812 31.1589 0.570068 28.8788C0.570068 21.5125 6.29753 19.3906 11.7835 16.6045V16.5958ZM169.798 35.0548H154.452V8.67745H156.048V33.4763H169.798V35.0634V35.0548ZM176.336 9.48826C173.917 10.5317 171.855 12.2589 170.404 14.4578C168.953 16.6567 168.175 19.2316 168.167 21.8661C168.162 23.6606 168.526 25.437 169.237 27.0847C169.89 28.6858 170.854 30.142 172.072 31.3692C173.29 32.5964 174.739 33.5705 176.336 34.2354C177.956 34.9286 179.697 35.2927 181.459 35.3064C183.221 35.3202 184.968 34.9833 186.598 34.3154C188.228 33.6475 189.709 32.662 190.955 31.4162C192.201 30.1704 193.187 28.6892 193.855 27.0588C194.555 25.4065 194.915 23.6304 194.915 21.8359C194.915 20.0415 194.555 18.2653 193.855 16.6131C193.182 14.9873 192.193 13.5114 190.945 12.271C189.697 11.0307 188.215 10.0506 186.585 9.38773C184.955 8.72486 183.21 8.39241 181.45 8.40966C179.691 8.42692 177.952 8.79355 176.336 9.48826ZM169.729 21.8748C169.72 23.8255 170.197 25.7477 171.115 27.469C172.033 29.1902 173.364 30.6566 174.988 31.7365C176.613 32.8164 178.48 33.4761 180.423 33.6563C182.365 33.8365 184.322 33.5316 186.117 32.769C188.956 31.5769 191.207 29.3101 192.38 26.4636C193.002 25.0142 193.319 23.4521 193.311 21.8748C193.32 20.3308 193.025 18.8002 192.443 17.3703C191.86 15.9404 191.002 14.6393 189.916 13.5412C188.831 12.443 187.54 11.5694 186.117 10.9702C184.694 10.371 183.167 10.058 181.623 10.0489H181.494C179.414 10.034 177.37 10.5824 175.577 11.6361C173.788 12.6821 172.305 14.1804 171.279 15.9807C170.252 17.781 169.718 19.8197 169.729 21.892V21.8748ZM198.193 35.0462V8.62569H207.587C208.487 8.61271 209.38 8.78783 210.209 9.13984C211.038 9.49186 211.784 10.013 212.4 10.67C213.041 11.3146 213.546 12.0809 213.887 12.9237C214.228 13.7666 214.397 14.669 214.384 15.578C214.398 16.4954 214.23 17.4065 213.891 18.2591C213.552 19.1117 213.048 19.889 212.408 20.5464C211.799 21.2152 211.053 21.7459 210.221 22.103C209.39 22.46 208.491 22.6351 207.587 22.6166H199.824V35.0634L198.193 35.0462ZM199.824 21.0208H207.587C208.265 21.0268 208.938 20.8901 209.56 20.6197C210.183 20.3492 210.742 19.9511 211.201 19.4509C212.173 18.4161 212.714 17.0496 212.714 15.6298C212.714 14.2099 212.173 12.8434 211.201 11.8086C210.74 11.3102 210.181 10.9127 209.559 10.6411C208.937 10.3694 208.265 10.2295 207.587 10.2301H199.824V21.0208ZM231.143 18.9765V20.5636H218.455V33.5022H232.144V35.0893H216.868V8.67745H232.213V10.2646H218.412V18.9765H231.143ZM248.912 13.3526L247.411 13.8701C247.077 12.6964 246.36 11.6675 245.376 10.946C244.469 10.2997 243.384 9.95291 242.271 9.95405C241.689 9.9333 241.11 10.0273 240.565 10.2307C240.02 10.4341 239.521 10.7429 239.095 11.1395C238.67 11.536 238.327 12.0125 238.086 12.5418C237.845 13.071 237.71 13.6426 237.69 14.2238V14.4739C237.683 15.094 237.835 15.7056 238.13 16.2508C238.424 16.7833 238.826 17.2478 239.312 17.6137C239.854 18.0176 240.432 18.3727 241.037 18.6746C241.675 18.9938 242.348 19.3043 243.064 19.5976C243.78 19.8908 244.487 20.2014 245.195 20.5291C245.914 20.8419 246.607 21.2141 247.265 21.6419C247.896 22.0403 248.476 22.5154 248.99 23.0565C249.498 23.6256 249.885 24.2917 250.129 25.0145C250.438 25.8174 250.587 26.673 250.568 27.5332C250.593 28.9944 250.181 30.4298 249.387 31.6563C248.637 32.8479 247.575 33.8114 246.316 34.4424C245.051 35.0687 243.656 35.3851 242.245 35.3653C241.311 35.3651 240.385 35.2106 239.502 34.9082C238.618 34.6069 237.794 34.1513 237.069 33.5626C236.279 32.8888 235.639 32.0573 235.189 31.1215C234.636 30.0436 234.283 28.8747 234.145 27.6712L235.732 27.4815C235.876 29.2889 236.684 30.9791 238.001 32.2256C239.195 33.2631 240.732 33.8196 242.314 33.7868C243.444 33.7872 244.561 33.5368 245.583 33.0536C246.595 32.5594 247.456 31.8028 248.076 30.8627C248.709 29.8607 249.027 28.692 248.99 27.5073C249 26.7708 248.85 26.041 248.55 25.3682C248.273 24.7542 247.87 24.2049 247.368 23.7552C246.834 23.2977 246.256 22.8933 245.643 22.5476C244.992 22.1826 244.321 21.8543 243.633 21.5642L241.494 20.6499C240.811 20.3419 240.146 19.9964 239.502 19.6148C238.883 19.2643 238.305 18.8478 237.777 18.3727C237.274 17.9071 236.872 17.3435 236.595 16.7166C236.294 16.0229 236.144 15.2731 236.155 14.517C236.144 13.7199 236.29 12.9283 236.586 12.1881C236.882 11.4478 237.322 10.7736 237.88 10.2042C238.454 9.61067 239.145 9.14425 239.911 8.83518C240.676 8.52611 241.497 8.38127 242.322 8.41005C243.755 8.41772 245.15 8.87645 246.307 9.72116C247.53 10.6225 248.436 11.8876 248.895 13.3353L248.912 13.3526Z" fill="white"/>
<path fill-rule="evenodd" clip-rule="evenodd" d="M121.269 9.04799H124.064V25.1349C124.022 27.1471 124.771 29.0955 126.151 30.5605C126.769 31.2578 127.527 31.816 128.376 32.1982C129.225 32.5803 130.146 32.7777 131.077 32.7773C132.3 32.795 133.5 32.4498 134.527 31.7853C135.598 31.104 136.47 30.1518 137.054 29.0251C137.699 27.831 138.029 26.492 138.012 25.1349V9.04799H140.807V25.109C140.823 26.9162 140.377 28.6975 139.513 30.2844C138.694 31.8329 137.48 33.1365 135.993 34.0625C134.515 34.9787 132.808 35.4599 131.068 35.4512C129.75 35.4435 128.449 35.1492 127.256 34.5887C126.081 34.0721 125.024 33.3206 124.15 32.3805C122.335 30.3874 121.329 27.788 121.33 25.0918V9.04799H121.269ZM106.14 24.7122H114.628L110.315 15.7502L106.097 24.7122H106.14ZM104.863 27.369H115.714L119.001 35.1321H121.994L110.323 8.76334L99.7655 32.6824L89.8545 18.8813L101.068 9.01349H96.9017L85.8091 18.8468V9.01349H83.0144V33.4587L72.0684 8.74609L61.476 32.6651L51.5651 18.864L62.7785 8.99624H58.6123L47.5628 18.8295V8.99624H44.7681V35.1321H47.5628V22.4264L49.6071 20.7013L59.7423 35.1321H63.3823L66.6256 27.369H77.4336L80.7199 35.1321H85.7573V22.4264L87.8103 20.7013L97.9454 35.1666H101.585L104.829 27.4035L104.863 27.369ZM67.8504 24.7122L72.077 15.7329L76.3898 24.695L67.8504 24.7122Z" fill="white"/>
</svg>
