<svg width="103" height="15" viewBox="0 0 103 15" fill="none" xmlns="http://www.w3.org/2000/svg">
<path fill-rule="evenodd" clip-rule="evenodd" d="M36.1574 6.33214C36.537 6.54236 37.0158 6.64747 37.5764 6.64747C38.137 6.64747 38.6041 6.54236 39.0012 6.33214C39.4041 6.13945 39.591 5.8942 39.591 5.61975C39.591 5.32778 39.4041 5.10005 39.0012 4.90735C38.6041 4.69714 38.1487 4.59787 37.5764 4.61539C37.0158 4.59203 36.5487 4.69714 36.1574 4.90735C35.7604 5.10005 35.5735 5.32778 35.5735 5.61975C35.5735 5.8942 35.7604 6.14529 36.1574 6.33214Z" fill="white"/>
<path fill-rule="evenodd" clip-rule="evenodd" d="M64.7394 6.30856C65.1189 6.50125 65.5978 6.60052 66.1642 6.60052C66.7306 6.60052 67.1919 6.49541 67.5831 6.30856C67.986 6.09834 68.1729 5.86477 68.1729 5.59616C68.1729 5.30419 67.986 5.0531 67.5831 4.86625C67.1861 4.67939 66.7072 4.57428 66.1642 4.57428C65.6211 4.57428 65.1423 4.67939 64.7394 4.86625C64.3423 5.0531 64.1555 5.30419 64.1555 5.59616C64.1555 5.86477 64.3423 6.09834 64.7394 6.30856Z" fill="white"/>
<path fill-rule="evenodd" clip-rule="evenodd" d="M101.58 11.8673H77.0723C71.9337 11.2133 71.4607 8.9827 71.3205 8.18271C71.3205 8.12432 71.2972 7.69221 71.2913 7.54622C71.2972 7.52287 71.3089 7.50535 71.3089 7.48199C71.7585 5.07035 73.6271 3.72731 77.0022 3.37695H101.516C102.094 3.37695 102.555 2.90981 102.555 2.33171C102.555 1.75362 102.094 1.28648 101.516 1.28648H76.9263C76.8912 1.28648 76.8562 1.28648 76.8212 1.29232C71.3614 1.85289 69.6855 4.75503 69.2534 7.09076C69.2067 7.21338 69.1833 7.35353 69.1892 7.49951L69.2417 8.42212C69.2417 8.463 69.2417 8.45716 69.2417 8.49219C69.3994 9.4148 69.7498 10.2265 70.2753 10.9272L65.633 8.34621L52.4946 1.04123C52.1676 0.772617 51.6946 0.720063 51.3034 0.947796L33.6102 11.2659V1.99887C33.6102 1.42078 33.1431 0.953635 32.5591 0.953635C32.4599 0.953635 32.3664 0.971153 32.2789 0.994511C32.1387 0.994511 31.9927 1.02955 31.8584 1.09378L16.1623 8.66737C16.0864 8.70241 16.0222 8.74912 15.958 8.79584L14.2762 9.63086L16.0864 10.5418C16.2383 10.6177 16.4018 10.6527 16.5653 10.6527C16.7346 10.6644 16.9098 10.6352 17.0733 10.5535L31.5197 3.58133V12.9126C31.5197 13.2279 31.6599 13.5023 31.8701 13.695C32.1913 14.0746 32.7518 14.1855 33.1956 13.9228L39.4437 10.279C39.4437 10.279 39.4671 10.2849 39.4729 10.2849L42.9998 8.20607L51.8289 3.06163L61.1017 8.20607H44.81L41.2247 10.2965H64.8681L71.6592 14.0804C72.1672 14.3607 72.8037 14.1797 73.084 13.6717C73.195 13.4731 73.23 13.2571 73.2066 13.0469C74.2343 13.4673 75.4606 13.7709 76.8737 13.9461C76.9146 13.9461 76.9555 13.9578 77.0022 13.9578H101.586C102.164 13.9578 102.631 13.4906 102.631 12.9067C102.631 12.3228 102.164 11.8615 101.586 11.8615L101.58 11.8673Z" fill="white"/>
<path fill-rule="evenodd" clip-rule="evenodd" d="M1.56494 0.872207C1.05108 0.609438 0.420431 0.819653 0.157662 1.33351C0.0875897 1.47366 0.0525538 1.62548 0.0467145 1.77146C0.0233573 1.86489 0 1.95832 0 2.05759V12.9771C0 13.5552 0.467145 14.0282 1.04524 14.0282C1.62333 14.0282 2.09048 13.561 2.09048 12.9771V3.48822L13.2611 9.12316L15.6085 7.96698L1.56494 0.872207Z" fill="white"/>
</svg>
