<svg width="73" height="31" viewBox="0 0 73 31" fill="none" xmlns="http://www.w3.org/2000/svg">
<path d="M61.6619 31C60.8833 30.9136 60.1048 30.8848 59.332 30.735C57.1347 30.3028 55.1162 29.5192 53.5245 27.8598C52.1577 26.4308 51.4483 24.708 51.1657 22.7835C51.0677 22.1267 51.0273 21.464 51.01 20.8014C51.0043 20.4154 51.235 20.4269 51.4887 20.4038C51.7425 20.3808 51.9097 20.4211 51.9328 20.7496C51.9904 21.7579 52.0885 22.7605 52.3365 23.74C53.0055 26.3732 54.6491 28.1479 57.1289 29.1908C57.3654 29.2887 57.4577 29.2426 57.4173 28.9718C57.1232 27.03 57.1059 25.0768 57.077 23.1177C57.0597 22.0114 56.9444 20.9166 56.558 19.868C55.9409 18.2085 54.6721 17.3097 53.017 16.8603C52.0366 16.5952 51.0331 16.4915 50.0239 16.4857C46.2464 16.4857 42.469 16.4857 38.6915 16.48C38.3339 16.48 38.2128 16.5722 38.2244 16.9409C38.2705 17.9032 38.184 18.8596 38.2705 19.8219C38.3282 20.4557 38.6281 20.9973 38.853 21.5677C39.9257 24.3219 41.0156 27.0646 42.1056 29.813C42.146 29.911 42.1864 30.0147 42.2152 30.1127C42.2383 30.1818 42.2325 30.2452 42.1518 30.2913C41.8461 30.4641 41.2463 30.2567 41.1137 29.934C40.3063 27.9059 39.4989 25.8777 38.6857 23.8495C38.5762 23.5671 38.4608 23.2906 38.3512 23.0082C38.3282 23.0082 38.3109 23.0197 38.2878 23.0255C38.2705 23.4346 38.2359 23.8495 38.2301 24.2586C38.2244 26.1197 38.2301 27.9865 38.2301 29.8476C38.2301 29.9917 38.2993 30.1991 38.1263 30.2682C37.9072 30.3604 37.6592 30.3431 37.4285 30.2682C37.3074 30.2279 37.3305 30.0896 37.3305 29.9859C37.3305 29.6402 37.3305 29.3002 37.3305 28.9545C37.3305 26.3328 37.3305 23.7112 37.3305 21.0895C37.3305 20.6228 37.3305 20.6228 36.8518 20.6228C32.1977 20.6228 27.5379 20.6228 22.8839 20.6228C22.4052 20.6228 22.4052 20.6228 22.4052 21.1241C22.4052 24.005 22.4052 26.8918 22.4052 29.7727C22.4052 30.3143 22.4052 30.2682 21.8862 30.3259C21.2921 30.3892 20.9115 30.1818 20.6116 29.669C20.3175 29.1562 19.9369 28.6952 19.5966 28.2055C19.5505 28.1421 19.5216 28.0326 19.4294 28.0326C19.3083 28.0326 19.314 28.1709 19.2794 28.2516C19.0372 28.845 18.8008 29.4385 18.5585 30.032C18.4605 30.274 17.6762 30.4469 17.4974 30.274C17.3878 30.1645 17.4859 30.0493 17.532 29.9456C17.8607 29.1331 18.1779 28.3092 18.5355 27.514C18.7027 27.1453 18.6623 26.8802 18.4259 26.5518C15.6116 22.6107 12.8203 18.6522 10.0175 14.7053C7.05893 10.5106 4.07734 6.32172 1.10152 2.13281C1.05538 2.06367 1.00348 2.00029 0.888134 1.84472V2.34024C0.888134 11.3922 0.888134 20.4499 0.888134 29.5019C0.888134 29.6229 0.888134 29.7381 0.888134 29.8591C0.888134 30.2625 0.461368 30.4814 0.103808 30.2798C0.0173013 30.2337 0.0057671 30.153 0 30.0723C0 29.9513 0 29.8361 0 29.7151V1.26852C0 0.663523 0 0.698094 0.599779 0.651999C1.10152 0.611666 1.38987 0.796047 1.67823 1.20514C6.56873 8.1252 11.4708 15.0395 16.3728 21.948C17.2379 23.1696 18.1029 24.3853 18.9738 25.6011C19.0314 25.6818 19.0603 25.8258 19.1929 25.797C19.291 25.7739 19.3025 25.6529 19.3371 25.5665C20.0119 23.9071 20.6866 22.2477 21.3556 20.5882C21.494 20.2425 21.5228 19.8795 21.5228 19.505C21.5228 13.3916 21.5228 7.28396 21.5171 1.17057C21.5171 0.68657 21.5401 0.663523 21.9669 0.663523C22.3937 0.663523 22.4167 0.68657 22.4167 1.136C22.4167 5.95296 22.4167 10.7699 22.4167 15.5869V17.7245C22.6186 17.6496 22.6128 17.5286 22.6474 17.4422C24.8447 12.0203 27.0362 6.59829 29.2392 1.18209C29.3142 1.00348 29.32 0.738428 29.5449 0.692332C29.8563 0.623189 30.185 0.623189 30.4964 0.692332C30.6752 0.732666 30.6925 0.945857 30.756 1.09567C32.1804 4.6911 33.6049 8.28653 35.0236 11.8877C35.733 13.6854 36.4308 15.4889 37.1344 17.2924C37.1575 17.3558 37.1863 17.4192 37.2151 17.4825C37.2555 17.4825 37.2959 17.4825 37.3362 17.4825V15.3391C37.3362 10.6259 37.3362 5.91839 37.3362 1.20514C37.3362 0.844063 37.5227 0.663523 37.8956 0.663523C41.5866 0.663523 45.2833 0.657761 48.98 0.663523C50.4679 0.663523 51.9443 0.749951 53.3918 1.136C53.8301 1.25124 54.2511 1.40681 54.6664 1.59119C54.8567 1.67762 55.0124 1.67762 55.2027 1.57391C57.1232 0.479142 59.2166 0.0527599 61.4081 0.00666463C63.1498 -0.0279069 64.8742 0.0585218 66.5524 0.588618C69.9723 1.66033 71.8466 4.02848 72.3772 7.5202C72.4406 7.9293 72.4637 8.34415 72.504 8.75901C72.5271 9.01254 72.3887 9.10473 72.158 9.08168C71.9446 9.06439 71.6563 9.19692 71.6217 8.80511C71.5352 7.95811 71.414 7.1111 71.1718 6.28715C70.4798 3.94205 68.9227 2.43819 66.6562 1.61424C65.4739 1.18786 64.2455 1.02076 62.9941 0.945857C61.1025 0.830618 59.2512 1.02076 57.4461 1.61424C56.9963 1.76405 56.558 1.94267 56.1312 2.15586C55.9582 2.24229 55.9582 2.30567 56.1024 2.42667C57.6249 3.70005 58.2881 5.38829 58.49 7.31277C58.6572 8.95492 58.49 10.5337 57.746 12.026C57.6018 12.3141 57.4461 12.5964 57.2558 12.85C57.0597 13.1093 57.1059 13.2072 57.4058 13.3109C58.8302 13.7834 60.2835 14.1176 61.7426 14.4575C63.7669 14.93 65.7911 15.391 67.7692 16.0363C68.6862 16.3359 69.5743 16.7162 70.376 17.2463C71.7716 18.1682 72.6194 19.4704 72.9366 21.1126C72.9539 21.2047 72.9769 21.2969 73 21.3891V24.4487C72.9654 24.5639 72.9308 24.6734 72.902 24.7887C72.5963 26.1197 71.9446 27.249 70.9469 28.1824C69.4244 29.6056 67.5674 30.3316 65.5604 30.735C64.8165 30.8848 64.061 30.9136 63.3055 31C62.7576 31 62.2098 31 61.6619 31ZM38.2359 8.55158C38.2359 10.7469 38.2359 12.9422 38.2359 15.1374C38.2359 15.3794 38.2532 15.5408 38.5704 15.5408C42.5439 15.4947 46.5232 15.6503 50.4968 15.4544C52.2038 15.3679 53.7609 14.7687 55.145 13.7546C55.3642 13.5933 55.3642 13.5011 55.122 13.3628C54.3665 12.9249 53.686 12.389 53.1439 11.7033C52.3711 10.7296 52.0308 9.60025 51.927 8.37873C51.7425 6.1892 52.2788 4.24167 53.8244 2.62257C54.0954 2.34024 54.0954 2.32872 53.7206 2.20772C52.4345 1.79862 51.1081 1.62 49.7586 1.62C46.0676 1.61424 42.3709 1.62 38.68 1.60848C38.3051 1.60848 38.2301 1.73524 38.2301 2.08095C38.2417 4.24167 38.2359 6.40239 38.2359 8.55734V8.55158ZM52.3595 15.9095C52.9478 16.0594 53.4437 16.1746 53.9282 16.3129C55.4911 16.7681 56.6849 17.6612 57.3365 19.1996C57.6422 19.9141 57.8095 20.6631 57.9017 21.4352C58.0805 23.0025 58.0344 24.587 58.1093 26.16C58.1612 27.1914 58.242 28.217 58.4035 29.2369C58.4438 29.4961 58.5649 29.6287 58.8245 29.6863C59.5684 29.8361 60.3181 29.9571 61.0736 30.0147C63.2767 30.1645 65.4393 30.0262 67.5212 29.2196C68.9111 28.6837 70.1338 27.8943 71.0104 26.6786C72.2445 24.9615 72.4464 23.0486 71.9158 21.0434C71.4256 19.1823 70.1164 18.0587 68.4325 17.2866C66.9849 16.624 65.4451 16.2841 63.9053 15.9211C61.4254 15.3334 58.9052 14.9012 56.5061 13.9851C56.385 13.939 56.2812 13.939 56.1774 14.0312C55.0989 14.9761 53.8301 15.535 52.348 15.9038L52.3595 15.9095ZM30.0351 1.75252C29.9082 1.83319 29.8909 1.97148 29.8448 2.08672C27.5322 7.81406 25.2253 13.5472 22.9127 19.2745C22.7628 19.6548 22.7628 19.6606 23.178 19.6606C27.6302 19.6606 32.0824 19.6606 36.5346 19.6606C37.0017 19.6606 37.0017 19.6606 36.8287 19.2054C34.6372 13.5299 32.4457 7.85439 30.2485 2.18467C30.1908 2.03486 30.1735 1.862 30.0293 1.74676L30.0351 1.75252ZM57.5788 8.28653C57.5788 8.02725 57.5961 7.7622 57.5788 7.50291C57.4519 5.73977 56.8117 4.21862 55.4046 3.07776C55.1335 2.85881 54.972 2.8761 54.7125 3.10081C52.2846 5.21544 51.7136 10.5106 55.7275 12.5964C56.062 12.7693 56.212 12.7174 56.408 12.4236C57.2443 11.1675 57.6191 9.78463 57.5788 8.28653ZM21.494 22.9564C21.396 22.9909 21.396 23.0889 21.3671 23.158C20.9519 24.1664 20.5713 25.1862 20.1157 26.1715C19.885 26.6786 19.8965 27.0588 20.2771 27.4737C20.5367 27.7618 20.7327 28.1075 20.9634 28.4244C21.1191 28.6376 21.2864 28.8508 21.4998 29.1331C21.4998 27.0128 21.4998 24.9846 21.4998 22.9564H21.494Z" fill="white"/>
</svg>
