<svg width="83" height="90" viewBox="0 0 83 90" fill="none" xmlns="http://www.w3.org/2000/svg">
<path d="M13.2901 66.749L10.7559 68.7129C10.8193 68.9347 10.9143 69.1564 11.0727 69.3465C11.2628 69.5999 11.5795 69.6316 11.9913 69.4732C12.3081 69.3781 12.6249 69.1881 12.9099 68.9347C13.2901 68.6496 13.5118 68.3011 13.5435 67.921C13.6068 67.5409 13.5118 67.1608 13.2584 66.7173L13.2901 66.749ZM10.0591 69.2198L6.95473 72.3874L5.5293 70.8353C6.19451 70.4551 6.76469 70.1067 7.23984 69.7899C7.71499 69.4732 8.22181 69.1247 8.69696 68.7446C9.14043 68.3962 10.0907 67.5726 11.5479 66.3055C12.2764 65.672 12.8466 65.1968 13.2584 64.8484C13.8602 65.2919 14.3671 65.767 14.7789 66.3055C15.3174 67.0024 15.5391 67.6676 15.4124 68.3328C15.3174 68.9347 14.9056 69.5048 14.177 70.075C13.6385 70.5185 12.9733 70.7402 12.2447 70.8036C11.3895 70.8669 10.7876 70.6135 10.3441 70.075C10.2491 69.9483 10.1541 69.7583 10.0907 69.5365C10.0907 69.4415 10.0591 69.3465 10.0591 69.1881V69.2198ZM12.4031 78.3109L11.1994 77.3923C12.4348 76.1886 13.6068 75.1116 14.7472 74.2247C16.0459 73.211 17.3763 72.3557 18.7384 71.6589L20.8924 73.021C19.9738 74.5414 19.1819 75.9035 18.4534 77.1389C17.5664 78.6911 16.7745 80.0848 16.141 81.2885L14.6521 80.1482L16.5528 77.1706L14.8739 76.0619L12.4031 78.2793V78.3109ZM17.0596 74.2247L18.0099 74.8582L19.1502 73.116H18.6751L17.0596 74.2247ZM24.0918 86.1034L22.0011 85.2164C22.1278 85.0264 22.2545 84.8363 22.3496 84.6463C22.4446 84.4562 22.5713 84.2345 22.698 83.9811C23.0148 83.3792 23.2365 82.7773 23.3632 82.2072C23.5849 81.3202 23.4899 80.7817 23.1098 80.5917C22.9198 80.4966 22.7297 80.465 22.5396 80.4966L21.0508 84.5196L19.1186 83.5376C19.5304 82.9357 19.9105 82.3655 20.2589 81.827C20.6074 81.2885 20.9241 80.7184 21.2092 80.1799C21.4626 79.673 21.7477 79.0712 22.0328 78.3743C22.3496 77.6774 22.6347 76.9489 22.9514 76.252C23.2682 75.5551 23.5533 74.9532 23.8067 74.4464C24.2818 74.6048 24.757 74.8265 25.2638 75.0799C26.3408 75.6184 27.0694 76.2203 27.3545 76.8221C27.7346 77.5507 27.6396 78.4377 27.1011 79.483C26.911 79.8948 26.5309 80.2115 26.0241 80.465C25.5172 80.7184 25.0421 80.75 24.5986 80.655C24.7887 81.2885 24.8203 82.1755 24.662 83.3792C24.5353 84.3929 24.3135 85.2798 24.0284 86.1034H24.0918ZM24.852 76.0619L23.1732 79.1979L23.3316 79.2929C23.7433 79.483 24.0284 79.6097 24.2185 79.578C24.4402 79.578 24.7253 79.3879 24.9787 79.0712C25.1688 78.8178 25.3272 78.596 25.4539 78.3426C25.6756 77.8675 25.739 77.4557 25.6439 77.0756C25.5172 76.6954 25.2638 76.347 24.8204 76.0619H24.852ZM29.0967 87.8139L27.6396 87.4972C28.2414 85.8816 28.875 84.4245 29.5402 83.1575C30.3004 81.7003 31.1557 80.3699 32.106 79.1662L34.6401 79.5147C34.45 81.2569 34.2917 82.8407 34.1649 84.2661C34.0066 86.04 33.8799 87.6239 33.8165 89.0176L31.9793 88.6058L32.4544 85.1214L30.4588 84.8363L29.16 87.8773L29.0967 87.8139ZM31.6308 82.1438L32.7712 82.3339L33.0879 80.2749L32.6445 80.465L31.6625 82.1755L31.6308 82.1438ZM40.6903 84.9947H41.0071C41.4506 84.9947 41.7673 85.3115 41.9891 86.0084C42.1474 86.5469 42.2108 87.0537 42.2108 87.6239C42.2108 88.2574 41.8624 88.7642 41.2605 89.176C40.722 89.4928 40.0885 89.6512 39.4232 89.6512C38.758 89.6512 38.1562 89.5245 37.5227 89.3344C37.5227 88.6058 37.586 87.7189 37.681 86.7052C37.7444 85.6916 37.8394 84.6779 37.9028 83.6643C37.9661 82.6506 38.0295 81.7637 38.0612 81.0035C38.0612 80.4333 38.0612 79.8948 37.9028 79.3563C38.473 79.2296 39.0431 79.1979 39.645 79.1979C40.5636 79.1979 41.2605 79.483 41.7673 79.9264C42.3058 80.4333 42.5592 81.1302 42.5592 82.0171C42.5592 82.7773 42.4008 83.3792 42.1474 83.8227C41.8623 84.3612 41.3872 84.7413 40.722 84.9947H40.6903ZM39.1699 88.6375H39.3599C39.8667 88.6375 40.2152 88.5742 40.3736 88.3841C40.5319 88.194 40.627 87.8456 40.722 87.3071L40.7853 86.8319C40.7853 86.4835 40.6586 86.2301 40.3736 86.04C40.1518 85.9133 39.8667 85.7866 39.4866 85.7233L39.2332 88.6375H39.1699ZM39.2649 83.9811C39.9934 83.7276 40.4369 83.3792 40.6587 82.9674C40.817 82.6823 40.9121 82.0805 40.9437 81.1935C40.9437 80.7817 40.817 80.465 40.5003 80.2749C40.2468 80.1165 39.8984 80.0215 39.4549 79.9898H39.3599L39.2966 83.9494L39.2649 83.9811ZM44.1114 79.483L50.0666 78.0259L50.3517 79.3563C49.9082 79.6414 49.4014 79.8948 48.7995 80.1482C48.6412 80.2115 47.7225 80.4966 45.9803 81.0035L46.6138 83.2842L48.8312 82.8407L49.243 84.9314L46.6772 85.3432L47.3741 88.3841L50.6368 87.6239L51.0169 88.986L45.9803 89.9996L44.0797 79.5147L44.1114 79.483ZM57.764 87.7189L57.9224 88.099L56.5286 88.8909C56.2752 88.3207 55.8 87.117 55.0398 85.2798C54.6914 84.3612 54.3746 83.6326 54.1212 83.0941C53.9312 82.6823 53.4877 81.7637 52.7591 80.4016C52.4107 79.7047 52.1256 79.1662 51.9355 78.7544L53.0759 78.1209C53.6777 78.2476 54.3429 78.4693 55.0082 78.7544C55.5467 78.9761 56.1485 79.2929 56.8454 79.673C57.4472 80.0215 58.0174 80.3699 58.6193 80.6867C58.4609 80.1482 58.3025 79.6414 58.1124 79.1029C57.9224 78.596 57.7323 78.0575 57.5106 77.5507C57.3522 77.2023 57.1938 76.8855 57.0671 76.6321C56.9087 76.3787 56.7187 76.0619 56.4336 75.6501C56.8137 75.4917 57.2572 75.3967 57.764 75.365C57.9857 75.8402 58.2075 76.4103 58.4609 77.0439C59.0627 78.5644 59.4429 79.483 59.6329 79.8631C59.918 80.465 60.2031 81.0668 60.5516 81.6687C60.9 82.2705 61.5652 83.3475 62.5472 84.9314L60.7099 85.6282C59.6963 84.8046 58.6509 84.0127 57.6373 83.1891C56.4019 82.2388 55.3249 81.542 54.3746 81.0668C54.6597 81.7003 55.0081 82.3972 55.4199 83.2208C55.8317 84.0127 56.2752 84.8363 56.687 85.6282C57.0988 86.4202 57.4473 87.117 57.7323 87.7189H57.764ZM68.5024 74.4147C69.1676 75.2383 69.6111 76.2836 69.8328 77.5507C70.1179 79.0078 69.8328 80.0532 69.1042 80.655C68.249 81.3519 67.0769 81.5103 65.5881 81.0985C64.226 80.75 63.1807 80.1165 62.4521 79.1979C61.5969 78.1526 61.1217 77.0122 60.995 75.8402C60.8366 74.4781 61.2801 73.4011 62.2621 72.6092C63.1174 71.9439 64.226 71.8489 65.5881 72.3874C66.7918 72.8309 67.7421 73.4961 68.4707 74.4147H68.5024ZM64.5745 77.7724C64.9229 78.2159 65.5881 78.7544 66.4751 79.3879C67.5521 80.1165 68.2173 80.3699 68.5024 80.1165C68.7241 79.9581 68.5657 79.2929 68.0272 78.1842C67.5838 77.2656 67.2036 76.6004 66.9185 76.2203C66.5701 75.7768 65.8732 75.175 64.8912 74.4147C63.7509 73.5278 63.0223 73.1793 62.7689 73.4011C62.5155 73.5911 62.6739 74.3197 63.2757 75.5551C63.7509 76.5687 64.1943 77.2973 64.5428 77.7724H64.5745ZM68.5657 67.6676C68.8508 67.2875 69.326 67.0658 69.9595 66.9707C70.4347 66.9074 71.0048 66.939 71.575 67.0658L71.3216 68.7763L71.1315 68.6179C70.8148 68.3645 70.4663 68.2061 70.0545 68.1428C69.5477 68.0477 69.1993 68.1428 68.9775 68.4278C68.7558 68.7129 68.6924 69.0297 68.8191 69.3465C68.9142 69.5999 69.1359 69.8533 69.4527 70.1067C70.1179 70.6135 71.0048 70.8669 72.1135 70.8669C73.0955 70.8353 74.0775 70.8036 75.0278 70.7402C76.1681 70.7402 77.0551 70.9936 77.6886 71.5005C78.4488 72.1023 78.7339 72.8942 78.5122 73.9079C78.3538 74.6998 77.942 75.5234 77.2768 76.3787C76.7383 77.0756 76.1998 77.6774 75.6613 78.1842C75.1228 78.6911 74.5209 79.1345 73.8557 79.5147L73.6023 78.406C73.9824 78.1209 74.3625 77.8358 74.7743 77.5507C75.1861 77.2656 75.5029 76.9489 75.7563 76.6321C76.1998 76.0619 76.5482 75.46 76.77 74.8582C77.0867 74.0029 77.0234 73.4011 76.5799 73.0526C76.3898 72.8942 75.8197 72.8309 74.901 72.8942C73.6657 72.9576 72.747 72.9576 72.1135 72.8626C70.9098 72.7042 69.8961 72.2607 69.0092 71.5955C68.439 71.152 68.0906 70.5185 67.9956 69.7583C67.9005 68.9664 68.0906 68.3011 68.5657 67.6993V67.6676Z" fill="#424242"/>
<path fill-rule="evenodd" clip-rule="evenodd" d="M27.2889 41.6616C28.5243 41.0281 36.6652 36.0865 37.1403 36.1182C37.3937 36.1182 46.2948 41.2498 46.9284 41.7566V52.9702C45.9781 53.7304 41.1949 56.3279 39.5794 57.2782C38.7558 57.7533 37.9956 58.3235 37.172 58.6719L29.5696 54.3322C28.2709 53.6037 27.3205 53.3186 27.3205 52.6534V41.6616H27.2889ZM48.829 41.7566C49.5575 41.1865 50.5712 40.6796 51.4581 40.1728L57.9835 36.3716C58.6804 35.9598 58.6487 35.9598 59.3456 36.4033C61.8164 37.9554 64.6673 39.4442 67.2014 40.933C68.12 41.4716 68.9119 42.2318 70.1156 41.915C70.7808 40.2995 69.5455 40.1411 68.3734 39.4442C67.3598 38.8741 66.4728 38.3356 65.4909 37.7971C58.0469 33.6474 59.5356 33.394 56.5264 35.0729C55.196 35.8331 48.1638 40.0461 47.8153 40.0144C45.2812 38.7157 42.7787 37.1002 40.2446 35.6431C36.5068 33.5207 37.9956 33.2673 32.5789 36.4666C31.3118 37.2269 30.0447 37.9554 28.8094 38.6523C27.4473 39.4126 25.5467 40.2045 25.4516 41.0914C25.2616 42.5802 25.5467 52.3366 25.4516 52.8434C25.3249 53.382 17.8809 57.4366 16.8673 58.0384C15.6953 58.7036 14.3331 59.1471 14.7766 60.2241C15.2834 61.4278 16.994 60.1607 17.7542 59.6856L26.4019 54.7124C27.3206 55.0925 28.3976 55.8527 29.3795 56.4229L35.2397 59.8123C36.4434 60.5092 36.7919 61.1427 38.2173 60.2874L47.0551 55.1875C48.6706 54.2055 48.8606 54.7124 48.8606 52.3683V41.7883L48.829 41.7566Z" fill="#424242"/>
<path fill-rule="evenodd" clip-rule="evenodd" d="M59.7598 22.8119C59.2847 25.3144 59.5697 29.5907 59.5697 32.3149C59.5697 33.7086 59.7915 34.1521 61.2169 33.772C61.7238 32.6316 61.4704 25.9796 61.4704 24.3007C61.4704 23.002 61.1219 22.1784 59.7915 22.7802L59.7598 22.8119Z" fill="#424242"/>
<path fill-rule="evenodd" clip-rule="evenodd" d="M56.4947 22.7481C55.6077 23.0965 55.8611 23.5083 55.8611 25.4089V31.9976C55.8611 32.9479 55.8611 34.31 57.1282 33.8349C57.9835 33.5181 57.7301 31.9976 57.7301 31.0473V24.4586C57.7301 23.4449 57.635 22.2729 56.4947 22.7164V22.7481Z" fill="#424242"/>
<path fill-rule="evenodd" clip-rule="evenodd" d="M30.5212 42.3565C28.2722 41.4696 28.779 43.4969 28.779 46.2211C28.779 47.2664 28.5573 51.6061 29.0007 52.208C29.5709 52.9682 30.6162 52.5881 30.6796 51.4161C30.7746 49.9589 30.6796 43.1485 30.5212 42.3565Z" fill="#424242"/>
<path fill-rule="evenodd" clip-rule="evenodd" d="M45.2189 50.8478C43.9518 50.4676 41.7661 52.1465 39.9923 53.1285L36.4128 55.2191C36.0327 55.6626 36.096 56.3595 36.5712 56.6762C37.2364 57.1514 38.5668 56.1694 39.1053 55.8527C39.9606 55.3458 40.6891 54.934 41.5761 54.3955C44.6487 52.59 45.8841 52.5266 45.2189 50.8478Z" fill="#424242"/>
<path fill-rule="evenodd" clip-rule="evenodd" d="M45.3751 43.4662C45.6285 42.2942 44.5831 42.0725 43.7279 41.5657C42.9043 41.0588 42.1124 40.6154 41.2571 40.1402C39.5149 39.1266 36.7907 37.0676 36.2839 38.5247C35.8404 39.7284 38.7863 40.8688 40.4969 41.8824C41.3204 42.3576 42.049 42.801 42.8726 43.2762C43.6962 43.7513 44.6465 44.67 45.4067 43.5296L45.3751 43.4662Z" fill="#424242"/>
<path d="M26.5928 13.152L28.3033 15.0843L22.3798 18.0619C22.0313 17.46 21.6829 16.8265 21.3661 16.193C20.3841 14.2924 19.814 13.247 19.7189 13.0253C19.4655 12.5502 18.7369 11.4415 17.5966 9.63591C17.0581 8.81232 16.6463 8.14711 16.3612 7.60861L18.832 6.21484C19.2754 7.60861 19.6556 8.74897 20.004 9.66759C20.4158 10.8079 20.891 11.98 21.3978 13.1203C21.9046 14.2607 22.4431 15.3377 22.9816 16.288L26.5928 13.152ZM27.9232 7.48191C28.2399 8.3055 28.62 9.16077 29.0318 10.0477C29.3486 10.6812 29.7921 11.5365 30.3306 12.5502L28.5567 13.2787C28.3983 12.8353 28.2083 12.2967 28.0182 11.6632C27.543 10.2061 27.258 9.31915 27.1313 8.97071C26.8778 8.3055 26.6244 7.70364 26.4027 7.16514C26.181 6.62664 25.8642 5.96143 25.4841 5.16952C25.294 4.75772 24.9773 4.15586 24.5655 3.33227L26.3393 2.50868C26.6244 3.49066 26.8778 4.34592 27.0996 5.07449C27.3213 5.80305 27.6064 6.59496 27.9549 7.45023L27.9232 7.48191ZM33.5933 2.03353L35.6206 1.30497C35.7473 2.22359 35.8423 3.26892 35.9057 4.47263C35.9057 4.9161 35.969 5.99311 36.0324 7.70364C36.0957 9.09741 36.1591 10.1744 36.2224 10.9347L33.6883 11.2831C32.833 10.1744 32.1678 9.2558 31.6927 8.55891C31.0908 7.64029 30.584 6.75335 30.2039 5.83472C29.8238 4.94778 29.4753 3.90245 29.2219 2.69874H31.1225C31.3442 3.58568 31.5977 4.47263 31.9461 5.26454C32.2946 6.08814 32.7063 6.91173 33.1815 7.767C33.5616 8.40053 34.0684 9.22412 34.702 10.1744L33.625 2.06521L33.5933 2.03353ZM43.9199 10.5229L41.6391 10.7129C41.6391 10.4595 41.7025 10.2378 41.7025 10.0477C41.7025 9.85765 41.7025 9.60424 41.7025 9.31915C41.7025 8.65394 41.6075 8.02041 41.4807 7.45023C41.259 6.56328 40.9423 6.11981 40.4988 6.11981C40.3087 6.11981 40.1187 6.18317 39.9603 6.30987L40.5305 10.5545H38.3765C38.4715 9.88933 38.5348 9.19244 38.5982 8.52723C38.6615 7.86203 38.6615 7.22849 38.6615 6.62664C38.6615 6.08814 38.6299 5.42293 38.5665 4.63101C38.5032 3.87077 38.4398 3.11054 38.4081 2.31862C38.3448 1.55838 38.3131 0.893174 38.3131 0.322995C38.7882 0.259642 39.3267 0.196289 39.8969 0.196289C41.1323 0.196289 42.0192 0.354672 42.5894 0.766468C43.2546 1.24162 43.6031 2.06521 43.6031 3.23724C43.6031 3.68071 43.4447 4.15586 43.1279 4.59934C42.7795 5.04281 42.3994 5.3279 41.9559 5.42293C42.4311 5.8664 42.8745 6.65831 43.2863 7.79867C43.6348 8.74897 43.8565 9.66759 43.9832 10.4912L43.9199 10.5229ZM39.9286 1.30497V4.85275H40.087C40.5305 4.85275 40.8472 4.7894 41.0056 4.69437C41.1957 4.56766 41.3541 4.31425 41.4491 3.90245C41.5124 3.58569 41.5441 3.3006 41.5441 3.01551C41.5441 2.50868 41.3857 2.09688 41.1006 1.8118C40.8156 1.52671 40.4354 1.36832 39.8969 1.27329L39.9286 1.30497ZM46.5173 0.196289L52.5992 0.893174L52.4092 2.25527C51.9024 2.38197 51.3322 2.44533 50.667 2.44533C50.5086 2.44533 49.5266 2.38197 47.721 2.28694L47.531 4.63101L49.78 4.97946L49.4316 7.07011L46.8974 6.56329L46.4857 9.66759L49.8117 10.0794L49.685 11.5048L44.6167 10.7129L46.4857 0.227966L46.5173 0.196289ZM60.1383 3.9658C61.5004 4.66269 62.4507 5.61299 63.0208 6.8167C63.6544 8.11544 63.591 9.44586 62.9258 10.7763C62.3873 11.8216 61.8488 12.6452 61.3103 13.247C60.6451 13.9756 59.9165 14.4191 59.1563 14.6091C58.301 14.7992 57.3507 14.6091 56.3054 14.1023C56.0837 13.9756 55.8936 13.8806 55.7036 13.7539C55.5135 13.6272 55.3551 13.5005 55.1967 13.3738L60.1383 3.99748V3.9658ZM57.224 12.9303C58.1426 13.152 58.9346 13.057 59.5998 12.6452C60.1699 12.2967 60.7084 11.6632 61.1836 10.7763C61.5637 10.0477 61.7854 9.31915 61.8488 8.62226C61.9438 7.67197 61.6904 7.03843 61.1203 6.72167C60.8035 6.56328 60.455 6.43658 60.1066 6.37323L57.224 12.9303ZM67.804 7.98873L72.7772 11.5682L71.9536 12.6452C71.4468 12.4868 70.9083 12.2651 70.3381 11.98C70.2114 11.885 69.3562 11.3781 67.8674 10.3962L66.5369 12.3284L68.3108 13.7222L66.9804 15.4011L65.0165 13.7222L63.1476 16.2246L65.8717 18.2203L65.0798 19.3923L61.0569 16.193L67.804 7.95706V7.98873Z" fill="#424242"/>
<path d="M6.32067 62.694C6.54241 63.1692 6.32067 63.7077 5.8772 63.9294C5.40205 64.1512 4.86355 63.9294 4.64181 63.4859C3.27972 60.6667 2.23438 57.6891 1.5375 54.6482C0.840612 51.6072 0.492188 48.4712 0.492188 45.3669C0.492188 39.8235 1.60085 34.3751 3.69151 29.3702C5.78216 24.3653 8.88648 19.7406 12.8144 15.8443C13.1945 15.4959 13.7647 15.4959 14.1131 15.8443C14.4616 16.1928 14.4616 16.7946 14.1131 17.1431C10.3436 20.8492 7.39767 25.284 5.40205 30.0671C3.40642 34.8503 2.32941 40.0453 2.32941 45.3669C2.32941 48.3762 2.67785 51.3538 3.34306 54.2364C4.00827 57.1506 4.99025 59.9698 6.32067 62.6623V62.694Z" fill="#424242"/>
<path d="M77.5631 64.1534C77.3414 64.5969 76.7712 64.787 76.3277 64.5652C75.8843 64.3435 75.6942 63.7733 75.9159 63.3299C77.3414 60.5423 78.4184 57.6281 79.1153 54.6188C79.8438 51.6095 80.1923 48.5052 80.1923 45.4009C80.1923 40.7761 79.3687 36.2147 77.8165 31.9067C76.2644 27.5987 73.952 23.5757 71.0061 20.0279C70.6893 19.6478 70.721 19.046 71.1328 18.7292C71.5129 18.4124 72.1148 18.4441 72.4315 18.8559C75.5358 22.5937 77.9432 26.8067 79.5588 31.2731C81.1743 35.7712 82.0295 40.5544 82.0295 45.4009C82.0295 48.6636 81.6494 51.8946 80.8892 55.0623C80.1289 58.2299 79.0203 61.2709 77.5315 64.1851L77.5631 64.1534Z" fill="#424242"/>
</svg>
