<svg width="25" height="25" viewBox="0 0 25 25" fill="none" xmlns="http://www.w3.org/2000/svg">
<g clip-path="url(#clip0_1_349)">
<path d="M5.50449 18.9523C3.97249 18.8083 2.68449 17.6873 2.47249 16.1653C1.96057 12.5254 1.96629 8.83147 2.48949 5.19325C2.69549 3.77125 3.85749 2.69625 5.28749 2.54725C7.78631 2.28615 10.2971 2.15564 12.8095 2.15625C15.3825 2.15625 17.8635 2.30125 20.2795 2.55025C20.9867 2.6169 21.6511 2.91855 22.1668 3.40705C22.6825 3.89554 23.0197 4.54271 23.1245 5.24525C23.3875 7.07925 23.5215 8.93025 23.5245 10.7843C23.5245 12.6633 23.3645 14.4883 23.1145 16.2633C23.01 16.979 22.6684 17.639 22.1445 18.1378C21.6206 18.6365 20.9445 18.9451 20.2245 19.0143C17.6995 19.2783 15.1645 19.4113 12.6265 19.4123C10.8275 21.4793 9.44949 22.5023 7.04049 23.5843V19.0933L5.87549 18.9873L5.50449 18.9523Z" fill="#E62974" stroke="black" stroke-width="2" stroke-linecap="round" stroke-linejoin="round"/>
<path d="M12.8048 11.8583C12.8048 11.2393 13.3088 10.8583 14.1968 10.2643C15.0198 9.71534 15.4548 9.00034 15.2598 8.02834C15.1578 7.54504 14.9176 7.10178 14.5684 6.75241C14.2192 6.40304 13.7761 6.16262 13.2928 6.06034C12.9301 5.9928 12.557 6.00539 12.1997 6.09725C11.8424 6.18911 11.5095 6.358 11.2243 6.59209C10.9392 6.82618 10.7087 7.1198 10.549 7.45238C10.3893 7.78495 10.3042 8.14843 10.2998 8.51734" stroke="black" stroke-width="2" stroke-linecap="round" stroke-linejoin="round"/>
<path d="M12.8029 15.4202C12.7461 15.4202 12.6917 15.3976 12.6515 15.3575C12.6114 15.3174 12.5889 15.2629 12.5889 15.2062C12.5889 15.1494 12.6114 15.095 12.6515 15.0549C12.6917 15.0147 12.7461 14.9922 12.8029 14.9922M12.8029 15.4202C12.8596 15.4202 12.9141 15.3976 12.9542 15.3575C12.9943 15.3174 13.0169 15.2629 13.0169 15.2062C13.0169 15.1494 12.9943 15.095 12.9542 15.0549C12.9141 15.0147 12.8596 14.9922 12.8029 14.9922" stroke="black" stroke-width="2"/>
</g>
<defs>
<clipPath id="clip0_1_349">
<rect width="24" height="24" fill="white" transform="translate(0.80957 0.871094)"/>
</clipPath>
</defs>
</svg>
