<svg width="25" height="25" viewBox="0 0 25 25" fill="none" xmlns="http://www.w3.org/2000/svg">
<g clip-path="url(#clip0_1_357)">
<path d="M2.43386 17.7527C2.43386 19.1127 3.49686 20.2327 4.83386 20.4627C6.60686 20.7697 8.28986 21.1767 12.7199 21.1767C17.1499 21.1767 18.8329 20.7697 20.6059 20.4637C21.9429 20.2317 23.0059 19.1127 23.0059 17.7547V7.57874C23.0059 6.39574 22.1999 5.37574 21.0309 5.18874C18.2811 4.76423 15.5022 4.5556 12.7199 4.56474C8.28986 4.56474 6.60586 4.97174 4.83286 5.27774C3.49586 5.50974 2.43286 6.62874 2.43286 7.98674L2.43386 17.7527Z" stroke="black" stroke-width="2" stroke-linecap="round" stroke-linejoin="round"/>
<path d="M23.0058 10.4585H2.43384V7.89045C2.43384 6.58545 3.45384 5.51245 4.73984 5.29345C4.97484 5.25345 5.20584 5.21345 5.44284 5.16945C7.02684 4.88145 8.79384 4.56445 12.7198 4.56445C16.4098 4.56445 19.3368 4.91645 21.1098 5.20245C22.2298 5.38445 23.0058 6.36445 23.0058 7.49945V10.4585Z" fill="#E62974" stroke="black" stroke-width="2" stroke-linecap="round" stroke-linejoin="round"/>
<path d="M15.386 16.6758H18.871" stroke="black" stroke-width="2" stroke-linecap="round" stroke-linejoin="round"/>
</g>
<defs>
<clipPath id="clip0_1_357">
<rect width="24" height="24" fill="white" transform="translate(0.719971 0.871094)"/>
</clipPath>
</defs>
</svg>
