<svg width="27" height="27" viewBox="0 0 27 27" fill="none" xmlns="http://www.w3.org/2000/svg">
<path d="M13.5 2.25C7.28663 2.25 2.25 7.28663 2.25 13.5C2.25 19.7134 7.28663 24.75 13.5 24.75C19.7134 24.75 24.75 19.7134 24.75 13.5C24.75 7.28663 19.7134 2.25 13.5 2.25ZM18.6593 18.4759C18.6112 18.5544 18.5481 18.6227 18.4736 18.6769C18.3992 18.7311 18.3147 18.77 18.2252 18.7915C18.1357 18.8131 18.0428 18.8167 17.9518 18.8023C17.8609 18.7879 17.7736 18.7558 17.6951 18.7076C15.0536 17.0944 11.7281 16.7288 7.812 17.6231C7.63074 17.6644 7.44049 17.6321 7.2831 17.5331C7.12571 17.4342 7.01407 17.2768 6.97275 17.0955C6.93143 16.9142 6.9638 16.724 7.06275 16.5666C7.1617 16.4092 7.31912 16.2976 7.50037 16.2562C11.7855 15.2775 15.4609 15.6982 18.4264 17.5106C18.7571 17.7131 18.8617 18.1451 18.6593 18.4759ZM20.0362 15.4125C19.9146 15.6106 19.7192 15.7524 19.4931 15.8066C19.267 15.8608 19.0286 15.8231 18.8303 15.7016C15.8063 13.8431 11.196 13.3054 7.61962 14.3899C7.40091 14.4453 7.16925 14.4144 6.97275 14.3035C6.77625 14.1926 6.63002 14.0103 6.56443 13.7944C6.49884 13.5785 6.51892 13.3456 6.62052 13.1442C6.72212 12.9427 6.89741 12.7881 7.11 12.7125C11.1949 11.4728 16.2743 12.0735 19.7471 14.2076C19.9453 14.3293 20.087 14.5247 20.1412 14.7508C20.1954 14.9769 20.1577 15.2153 20.0362 15.4136V15.4125ZM20.1544 12.222C16.5285 10.0688 10.5469 9.87075 7.08413 10.9215C6.9519 10.9616 6.81307 10.9753 6.67556 10.9617C6.53805 10.9482 6.40456 10.9077 6.2827 10.8426C6.16084 10.7774 6.053 10.6889 5.96534 10.5821C5.87768 10.4753 5.81192 10.3523 5.77181 10.2201C5.7317 10.0878 5.71803 9.94901 5.73157 9.8115C5.74511 9.67399 5.78561 9.54049 5.85074 9.41863C5.91588 9.29677 6.00438 9.18894 6.11119 9.10128C6.218 9.01362 6.34103 8.94786 6.47325 8.90775C10.4479 7.70175 17.0539 7.93462 21.2288 10.413C21.3475 10.4835 21.4513 10.5768 21.534 10.6874C21.6167 10.7981 21.6769 10.9239 21.711 11.0578C21.7451 11.1916 21.7525 11.3309 21.7328 11.4677C21.7131 11.6044 21.6666 11.7359 21.5961 11.8547C21.5255 11.9735 21.4323 12.0772 21.3216 12.1599C21.211 12.2427 21.0852 12.3028 20.9513 12.3369C20.8174 12.371 20.6781 12.3784 20.5414 12.3587C20.4047 12.339 20.2732 12.2925 20.1544 12.222Z" fill="white"/>
</svg>
