<svg width="25" height="25" viewBox="0 0 25 25" fill="none" xmlns="http://www.w3.org/2000/svg">
<g clip-path="url(#clip0_1_342)">
<path d="M12.91 23.492C18.776 23.492 23.531 18.737 23.531 12.871C23.531 7.005 18.776 2.25 12.91 2.25C7.044 2.25 2.289 7.005 2.289 12.871C2.289 18.737 7.044 23.492 12.91 23.492Z" stroke="black" stroke-width="2" stroke-linecap="round" stroke-linejoin="round"/>
<path d="M5.965 16.956C6.72352 16.956 7.45097 16.6547 7.98733 16.1183C8.52368 15.582 8.825 14.8545 8.825 14.096V11.646C8.825 10.8875 9.12632 10.16 9.66268 9.62368C10.199 9.08732 10.9265 8.786 11.685 8.786C12.4433 8.78574 13.1705 8.4843 13.7067 7.94797C14.2428 7.41165 14.544 6.68435 14.544 5.926V2.375C14.0033 2.29163 13.4571 2.24984 12.91 2.25C7.044 2.25 2.289 7.005 2.289 12.871C2.289 14.319 2.579 15.699 3.103 16.956H5.965ZM23.53 12.707C22.7122 12.2829 21.8053 12.0591 20.884 12.054H17.404C16.6549 12.068 15.9412 12.3754 15.4163 12.9102C14.8915 13.4449 14.5975 14.1642 14.5975 14.9135C14.5975 15.6628 14.8915 16.3821 15.4163 16.9168C15.9412 17.4516 16.6549 17.759 17.404 17.773C17.6722 17.773 17.9379 17.8259 18.1857 17.9285C18.4335 18.0312 18.6586 18.1817 18.8483 18.3714C19.0379 18.5612 19.1883 18.7864 19.2909 19.0343C19.3934 19.2821 19.4461 19.5478 19.446 19.816V21.237H19.454C20.7168 20.251 21.7396 18.9917 22.4458 17.5536C23.1519 16.1155 23.5229 14.5361 23.531 12.934V12.808L23.53 12.707Z" fill="#E62974" stroke="black" stroke-width="2" stroke-linecap="round" stroke-linejoin="round"/>
</g>
<defs>
<clipPath id="clip0_1_342">
<rect width="24" height="24" fill="white" transform="translate(0.910004 0.871094)"/>
</clipPath>
</defs>
</svg>
