<svg width="26" height="26" viewBox="0 0 26 26" fill="none" xmlns="http://www.w3.org/2000/svg">
<path d="M24.7188 4.79688L16.5156 13L24.7188 21.2812C25.7344 22.2188 25.7344 23.8594 24.7188 24.7969C23.7812 25.8125 22.1406 25.8125 21.2031 24.7969L13 16.5938L4.71875 24.7969C3.78125 25.8125 2.14062 25.8125 1.20312 24.7969C0.1875 23.8594 0.1875 22.2188 1.20312 21.2812L9.40625 13L1.20312 4.79688C0.1875 3.85938 0.1875 2.21875 1.20312 1.28125C2.14062 0.265625 3.78125 0.265625 4.71875 1.28125L13 9.48438L21.2031 1.28125C22.1406 0.265625 23.7812 0.265625 24.7188 1.28125C25.7344 2.21875 25.7344 3.85938 24.7188 4.79688Z" fill="white"/>
</svg>
