<svg width="27" height="27" viewBox="0 0 27 27" fill="none" xmlns="http://www.w3.org/2000/svg">
<path fill-rule="evenodd" clip-rule="evenodd" d="M22.9954 5.89877C24.0406 6.17327 24.8629 6.98214 25.1431 8.00927C25.6504 9.87002 25.6504 13.7535 25.6504 13.7535C25.6504 13.7535 25.6504 17.637 25.1431 19.4978C25.0013 20.007 24.7281 20.47 24.351 20.8404C23.9739 21.2108 23.506 21.4756 22.9943 21.6083C21.0998 22.1066 13.5004 22.1066 13.5004 22.1066C13.5004 22.1066 5.90219 22.1066 4.00656 21.6083C3.49492 21.4755 3.02712 21.2107 2.65002 20.8403C2.27291 20.4699 1.99972 20.0069 1.85781 19.4978C1.35156 17.637 1.35156 13.7535 1.35156 13.7535C1.35156 13.7535 1.35156 9.87002 1.85781 8.00927C1.99962 7.50003 2.27277 7.03702 2.64989 6.66661C3.02702 6.2962 3.49487 6.03141 4.00656 5.89877C5.90219 5.40039 13.5016 5.40039 13.5016 5.40039C13.5016 5.40039 21.0998 5.40039 22.9943 5.89877H22.9954ZM17.3659 13.7535L11.0164 17.2804V10.2278L17.3682 13.7535H17.3659Z" fill="white"/>
</svg>
